<svg width="1262" height="427" viewBox="0 0 1262 427" fill="none" xmlns="http://www.w3.org/2000/svg">
<g opacity="0.5" filter="url(#filter0_f_4022_7360)">
<path d="M-180.675 355.811C134.848 676.987 438.021 1113.74 885.737 840.09C1876.02 234.818 1225.02 -655.819 967.234 -410.887C488.121 44.3303 626.021 -294.025 -21.3865 -416.236C-668.794 -538.447 -575.08 -45.6587 -180.675 355.811Z" stroke="white"/>
<path d="M-151.815 337.062C151.788 656.005 441.53 1087.78 883.575 827.075C1861.31 250.433 1238.43 -630.56 982.555 -395.011C507.009 42.7672 647.078 -285.989 15.856 -415.476C-615.366 -544.963 -531.318 -61.6165 -151.815 337.062Z" stroke="white"/>
<path d="M-123.342 319.039C168.49 635.454 445.036 1061.94 881.115 813.93C1845.66 265.37 1250.41 -605.32 996.689 -379.031C525.137 41.5367 667.108 -277.637 52.1365 -413.921C-562.835 -550.205 -488.133 -76.4805 -123.342 319.039Z" stroke="white"/>
<path d="M-95.2776 301.727C184.941 615.325 448.532 1036.22 878.356 800.648C1829.06 279.606 1260.98 -580.132 1009.63 -362.976C542.495 40.6175 686.102 -268.998 87.4348 -411.6C-511.232 -554.202 -445.55 -90.2703 -95.2776 301.727Z" stroke="white"/>
<path d="M-67.6247 285.124C201.143 595.619 452.025 1010.61 875.313 787.228C1811.57 293.129 1270.14 -555.023 1021.39 -346.868C559.09 39.9984 704.067 -260.089 121.747 -408.529C-460.573 -556.969 -403.584 -102.995 -67.6247 285.124Z" stroke="white"/>
<path d="M-40.4053 269.212C217.08 576.323 455.506 985.129 871.984 773.658C1793.17 305.916 1277.9 -530.029 1031.97 -330.737C574.909 39.6561 720.993 -250.937 155.052 -404.737C-410.888 -558.537 -362.262 -114.677 -40.4053 269.212Z" stroke="white"/>
<path d="M-13.6327 253.981C232.746 557.431 458.974 959.762 868.374 759.935C1773.91 317.948 1284.26 -505.181 1041.37 -314.611C589.951 39.5731 736.879 -241.568 187.338 -400.25C-362.203 -558.931 -321.606 -125.332 -13.6327 253.981Z" stroke="white"/>
<path d="M12.6758 239.421C248.128 538.939 462.423 934.513 864.485 746.054C1753.79 329.21 1289.24 -480.508 1049.59 -298.513C604.207 39.733 751.719 -232.004 218.588 -395.088C-314.543 -558.173 -281.64 -134.976 12.6758 239.421Z" stroke="white"/>
<path d="M38.5077 225.517C263.221 520.835 465.853 909.38 860.322 732.006C1732.83 339.681 1292.83 -456.045 1056.64 -282.474C617.677 40.115 765.513 -222.27 248.791 -389.282C-267.931 -556.293 -242.383 -143.63 38.5077 225.517Z" stroke="white"/>
<path d="M63.8509 212.257C278.017 503.113 469.263 884.361 855.892 717.785C1711.06 349.343 1295.05 -431.823 1062.52 -266.521C630.358 40.6993 778.262 -212.394 277.937 -382.856C-222.389 -553.319 -203.856 -151.314 63.8509 212.257Z" stroke="white"/>
<path d="M88.6911 199.628C292.508 485.765 472.649 859.457 851.199 703.387C1688.49 358.183 1295.9 -407.871 1067.23 -250.679C642.248 41.4695 789.965 -202.395 306.013 -375.836C-177.939 -549.276 -166.08 -158.044 88.6911 199.628Z" stroke="white"/>
<path d="M113.016 187.617C306.686 468.784 476.01 834.666 846.247 688.805C1665.16 366.18 1295.4 -384.222 1070.79 -234.976C653.345 42.4055 800.621 -192.302 333.009 -368.247C-134.604 -544.192 -129.073 -163.841 113.016 187.617Z" stroke="white"/>
<path d="M136.803 176.208C320.537 452.157 479.335 809.985 841.035 674.03C1641.06 373.319 1293.54 -360.908 1073.19 -219.44C663.638 43.4861 810.222 -182.14 358.905 -360.119C-92.4116 -538.098 -92.8633 -168.729 136.803 176.208Z" stroke="white"/>
<path d="M160.055 165.394C334.065 435.884 482.634 785.419 835.579 659.065C1616.24 379.589 1290.36 -337.954 1074.44 -204.091C673.139 44.6996 818.783 -171.928 383.706 -351.472C-51.3711 -531.016 -57.458 -172.719 160.055 165.394Z" stroke="white"/>
<path d="M182.75 155.157C347.256 419.953 485.898 760.964 829.879 643.9C1590.71 384.972 1285.86 -315.392 1074.55 -188.959C681.84 46.023 826.298 -161.692 407.395 -342.336C-11.5083 -522.98 -22.8816 -175.837 182.75 155.157Z" stroke="white"/>
<path d="M204.876 145.485C360.101 404.356 489.123 736.621 823.937 628.532C1564.5 389.455 1280.04 -293.251 1073.53 -174.068C689.738 47.4398 832.766 -151.456 429.96 -332.735C27.1542 -514.015 10.8444 -178.103 204.876 145.485Z" stroke="white"/>
<path d="M226.424 136.362C372.597 389.084 492.311 712.385 817.762 612.953C1537.61 393.022 1272.92 -271.563 1071.39 -159.446C696.836 48.9288 838.194 -141.246 451.398 -322.7C64.6019 -504.154 43.7066 -179.539 226.424 136.362Z" stroke="white"/>
<path d="M247.38 127.775C384.735 374.128 495.455 688.259 811.358 597.16C1510.09 395.662 1264.51 -250.354 1068.13 -145.117C703.133 50.4729 842.582 -131.085 471.698 -312.255C100.814 -493.426 75.6852 -180.166 247.38 127.775Z" stroke="white"/>
<path d="M267.736 119.706C396.512 359.477 498.558 664.237 804.733 581.145C1481.95 397.358 1254.84 -229.658 1063.76 -131.108C708.631 52.051 845.936 -120.998 490.856 -301.43C135.776 -481.862 106.766 -180.008 267.736 119.706Z" stroke="white"/>
<path d="M287.478 112.142C407.917 345.125 501.613 640.321 797.889 564.906C1453.21 398.1 1243.9 -209.5 1058.29 -117.444C713.329 53.6463 848.257 -111.009 508.863 -290.251C169.468 -469.493 136.93 -179.087 287.478 112.142Z" stroke="white"/>
<path d="M306.598 105.067C418.947 331.061 504.621 616.508 790.835 548.437C1423.9 397.874 1231.73 -189.909 1051.74 -104.149C717.229 55.2391 849.552 -101.141 525.714 -278.746C201.876 -456.351 166.162 -177.425 306.598 105.067Z" stroke="white"/>
<path d="M325.082 98.4681C429.592 317.277 507.575 592.799 783.572 531.735C1394.04 396.672 1218.32 -170.912 1044.11 -91.2472C720.33 56.813 849.821 -91.4168 541.401 -266.94C232.98 -442.463 194.445 -175.043 325.082 98.4681Z" stroke="white"/>
<path d="M342.921 92.322C439.848 303.758 510.474 569.185 776.107 514.79C1363.65 394.474 1203.7 -152.543 1035.41 -78.7691C722.634 58.3422 849.071 -81.8669 555.919 -254.868C262.766 -427.87 221.763 -171.973 342.921 92.322Z" stroke="white"/>
<path d="M360.107 86.6252C449.709 290.506 513.318 545.678 768.447 497.608C1332.76 391.284 1187.89 -134.816 1025.66 -66.7269C724.145 59.8204 847.308 -72.5025 569.265 -242.547C291.222 -412.591 248.103 -168.225 360.107 86.6252Z" stroke="white"/>
<path d="M376.631 81.3548C459.172 277.504 516.105 522.269 760.601 480.179C1301.39 387.083 1170.9 -117.767 1014.86 -55.1515C724.866 61.2224 844.541 -63.3539 581.438 -230.009C318.334 -396.665 273.453 -163.831 376.631 81.3548Z" stroke="white"/>
<path d="M392.482 76.4958C468.23 264.743 518.831 498.958 752.57 462.5C1269.57 381.863 1152.75 -101.42 1003.04 -44.0654C724.8 62.5307 840.773 -54.4431 592.431 -217.283C344.089 -380.123 297.798 -158.814 392.482 76.4958Z" stroke="white"/>
<path d="M407.656 72.0299C476.88 252.213 521.496 475.74 744.366 444.566C1237.32 375.613 1133.45 -85.8028 990.199 -33.4937C723.951 63.7254 836.014 -45.7951 602.245 -204.398C368.475 -363 321.126 -153.199 407.656 72.0299Z" stroke="white"/>
<path d="M422.139 67.9435C485.113 239.906 524.094 452.618 735.988 426.375C1204.67 368.329 1113.04 -70.9388 976.353 -23.4567C722.32 64.791 830.268 -37.4297 610.873 -191.378C391.478 -345.327 343.42 -147.009 422.139 67.9435Z" stroke="white"/>
<path d="M435.928 64.2168C492.93 227.808 526.628 429.586 727.45 407.92C1171.64 359.997 1091.52 -56.8559 961.521 -13.9801C719.915 65.7064 823.548 -29.3728 618.32 -178.256C413.091 -327.138 364.675 -140.272 435.928 64.2168Z" stroke="white"/>
<path d="M449.012 60.828C500.322 215.905 529.093 406.638 718.753 389.193C1138.25 350.607 1068.91 -43.5841 945.713 -5.09159C716.738 66.4485 815.859 -21.6519 624.58 -165.063C433.301 -308.474 384.875 -133.019 449.012 60.828Z" stroke="white"/>
<path d="M461.386 57.7797C507.287 204.207 531.487 383.792 709.906 370.211C1104.54 340.171 1045.25 -31.1283 928.945 3.20641C712.795 67.019 807.211 -14.2698 629.655 -151.808C452.1 -289.347 404.01 -125.254 461.386 57.7797Z" stroke="white"/>
<path d="M473.038 55.0316C513.815 192.678 533.804 361.023 700.909 350.946C1070.52 328.659 1020.53 -19.5355 911.229 10.869C708.086 67.3771 797.608 -7.27149 633.541 -138.543C469.473 -269.814 422.065 -117.027 473.038 55.0316Z" stroke="white"/>
<path d="M483.968 52.5811C519.912 181.325 536.049 338.343 691.777 331.411C1036.22 316.08 994.797 -8.81455 892.586 17.8893C702.624 67.5196 787.068 -0.664495 636.244 -125.28C485.421 -249.896 439.038 -108.349 483.968 52.5811Z" stroke="white"/>
<path d="M494.168 50.4068C525.568 170.132 538.217 315.747 682.513 311.599C1001.67 302.424 968.062 1.00744 873.031 24.2422C696.412 67.4251 775.599 5.52563 637.765 -112.052C499.932 -229.629 454.916 -99.2498 494.168 50.4068Z" stroke="white"/>
<path d="M503.634 48.4894C530.786 159.087 540.308 293.231 673.127 291.505C966.901 287.686 940.352 9.90612 852.583 29.9052C689.459 67.0743 763.213 11.2757 638.107 -98.8875C513.002 -209.051 469.694 -89.7578 503.634 48.4894Z" stroke="white"/>
<path d="M512.357 46.8125C535.556 148.181 542.319 270.794 663.622 271.127C931.926 271.861 911.686 17.8605 831.255 34.8589C681.769 66.4512 749.918 16.5655 637.271 -85.8138C524.623 -188.193 483.359 -79.8982 512.357 46.8125Z" stroke="white"/>
<path d="M520.333 45.3603C539.877 137.405 544.245 248.437 654.003 250.464C896.772 254.949 882.086 24.851 809.064 39.0854C673.348 65.5406 735.726 21.3762 635.257 -72.8563C534.788 -167.089 495.903 -69.6953 520.333 45.3603Z" stroke="white"/>
<path d="M527.56 44.1117C543.75 126.745 546.09 226.153 644.283 229.513C861.472 236.943 851.581 30.8531 786.032 42.5616C664.207 64.3222 720.653 25.6838 632.076 -60.0461C543.498 -145.776 507.323 -59.1795 527.56 44.1117Z" stroke="white"/>
<path d="M534.029 43.0462C547.166 116.187 547.846 203.939 634.462 208.266C826.045 217.836 820.187 35.8436 762.172 45.2655C654.349 62.7766 704.706 29.465 627.724 -47.4133C550.742 -124.292 517.608 -48.38 534.029 43.0462Z" stroke="white"/>
<path d="M539.745 42.1528C550.133 105.728 549.52 181.798 624.557 186.729C790.526 197.636 787.94 39.8095 737.512 47.1855C643.791 60.8943 687.906 32.7069 622.216 -34.9781C556.527 -102.663 526.76 -37.3167 539.745 42.1528Z" stroke="white"/>
<path d="M544.693 41.4137C552.637 95.3579 551.101 159.73 614.562 164.901C754.93 176.339 754.852 42.7313 712.06 48.3032C632.53 58.6589 670.256 35.3897 615.547 -22.768C560.839 -80.9257 534.763 -26.0166 544.693 41.4137Z" stroke="white"/>
</g>
<g filter="url(#filter1_d_4022_7360)">
<g filter="url(#filter2_ii_4022_7360)">
<path d="M146.513 300.985C173.859 304.829 199.142 285.776 202.985 258.431C206.829 231.085 187.776 205.802 160.431 201.959C133.085 198.115 107.802 217.168 103.959 244.513C100.115 271.859 119.168 297.142 146.513 300.985Z" fill="#224DDA"/>
</g>
<path d="M160.779 199.483C189.491 203.518 209.496 230.066 205.461 258.779C201.426 287.491 174.878 307.496 146.165 303.461C117.453 299.426 97.4477 272.878 101.483 244.165C105.518 215.453 132.066 195.448 160.779 199.483Z" stroke="white" stroke-width="5"/>
<path fill-rule="evenodd" clip-rule="evenodd" d="M157.219 224.811L178.435 241.386L174.688 268.047L149.725 278.133L128.509 261.558L132.256 234.896L157.219 224.811Z" stroke="white" stroke-width="5"/>
</g>
<g filter="url(#filter3_d_4022_7360)">
<g filter="url(#filter4_ii_4022_7360)">
<path d="M89.306 122.723C97.5012 151.302 80.9738 181.114 52.3923 189.311C23.8224 197.501 -5.99127 180.974 -14.1841 152.396C-22.3839 123.817 -5.85965 94.0022 22.7146 85.8096C51.2946 77.6136 81.1086 94.1439 89.3046 122.724L89.306 122.723Z" fill="#F7931A"/>
</g>
<path d="M-16.5875 153.085C-25.1675 123.178 -7.87598 91.9795 22.0256 83.4062L22.7265 83.2102C51.3934 75.3809 81.0715 91.1997 90.7456 119.005L90.8268 118.958L91.7092 122.033C100.218 151.706 83.2587 182.649 53.7805 191.509L53.0814 191.714C23.1842 200.285 -8.01412 182.99 -16.5875 153.085Z" stroke="white" stroke-width="5"/>
<path d="M26.9844 108.36L29.4996 117.134C30.9461 116.688 32.4029 116.24 33.834 115.829L31.3341 107.113L36.7845 105.549L39.352 114.502C46.563 113.101 52.7549 113.667 55.2275 119.943L55.2258 119.944C57.042 124.534 55.8794 127.934 53.1829 130.452C58.7424 130.211 62.8865 132.369 64.2301 139.481C65.9026 148.309 60.151 152.457 51.1402 155.609L53.7304 164.648L48.2808 166.211L45.7269 157.294C44.3151 157.7 42.8645 158.103 41.3624 158.5L43.9302 167.459L38.4866 169.019L35.8872 159.964C34.6116 160.32 33.3066 160.671 31.9866 161.048L24.8932 163.082L24.1089 156.262C24.1089 156.262 28.1578 155.169 28.0703 155.128C29.6116 154.683 29.703 153.458 29.6007 152.735L25.5062 138.446L26.0809 138.281C25.8471 138.315 25.646 138.366 25.4935 138.409L22.5686 128.21C22.0439 127.163 20.9564 126.089 18.7489 126.721C18.7946 126.628 14.7925 127.858 14.7925 127.858L13.1222 122.038L20.6391 119.885L20.6474 119.913C21.7768 119.589 22.9292 119.234 24.102 118.872L21.5382 109.921L26.9844 108.36ZM39.596 151.872C43.2903 150.81 55.0952 148.257 53.1533 141.491L53.155 141.49C51.1277 134.434 39.8535 138.816 36.1585 139.875L39.596 151.872ZM34.5815 134.384C37.6591 133.501 47.5278 131.449 45.7644 125.292C43.9238 118.871 34.5393 122.621 31.4617 123.504L34.5815 134.384Z" fill="white"/>
</g>
<g filter="url(#filter5_d_4022_7360)">
<g filter="url(#filter6_ii_4022_7360)">
<path d="M102.563 60.2418C119.995 62.5145 135.969 50.2256 138.242 32.7936C140.515 15.3617 128.226 -0.612127 110.794 -2.88486C93.3617 -5.15759 77.3879 7.13138 75.1151 24.5633C72.8424 41.9953 85.1314 57.9691 102.563 60.2418Z" fill="#23B852"/>
</g>
<path d="M111.116 -5.36393C129.917 -2.91271 143.172 14.3156 140.721 33.1165C138.27 51.9175 121.041 65.1722 102.24 62.721C83.4388 60.2696 70.185 43.0407 72.6362 24.2397C75.0876 5.439 92.3156 -7.81492 111.116 -5.36393Z" stroke="white" stroke-width="5"/>
<path fill-rule="evenodd" clip-rule="evenodd" d="M108.998 33.078L114.027 33.7336L113.454 38.1319L98.3446 36.162L119.548 19.8352C120.24 19.3028 120.542 18.3968 120.329 17.562C120.092 16.7242 119.39 16.1023 118.507 15.9871L96.1032 13.0662C94.9026 12.9097 93.8271 13.7379 93.6704 14.9395L91.6013 30.8098L102.126 22.7055L97.0975 22.0498L97.6739 17.6288L112.761 19.5958L91.5793 35.9256C90.8879 36.458 90.5855 37.3639 90.7992 38.1988C91.0355 39.0366 91.7377 39.6585 92.6212 39.7736L115.025 42.6945C116.203 42.8481 117.301 42.0229 117.457 40.8213L119.524 24.9737L108.998 33.078Z" fill="white"/>
</g>
<g filter="url(#filter7_d_4022_7360)">
<g filter="url(#filter8_ii_4022_7360)">
<path d="M183.456 153.545C201.062 152.005 214.086 136.484 212.545 118.878C211.005 101.272 195.484 88.2486 177.878 89.7889C160.272 91.3292 147.249 106.85 148.789 124.456C150.329 142.062 165.85 155.086 183.456 153.545Z" fill="#008FBB"/>
</g>
<path d="M177.66 87.2984C196.642 85.6378 213.375 99.6789 215.036 118.66C216.697 137.642 202.655 154.375 183.674 156.036C164.693 157.696 147.959 143.655 146.298 124.674C144.638 105.693 158.679 88.9591 177.66 87.2984Z" stroke="white" stroke-width="5"/>
<path d="M167.559 123.743C168.451 123.665 169.214 124.315 169.293 125.221C169.372 126.127 168.734 126.9 167.842 126.978L164.019 127.313C163.127 127.391 162.364 126.74 162.285 125.834C162.205 124.928 162.844 124.155 163.736 124.077L167.559 123.743ZM197.618 115.081C198.51 115.003 199.274 115.654 199.353 116.559C199.432 117.465 198.793 118.239 197.901 118.317L188.345 119.153C187.453 119.231 186.689 118.58 186.609 117.674C186.53 116.768 187.169 115.995 188.061 115.917L197.618 115.081Z" fill="white"/>
<path d="M167.035 117.757C167.398 117.725 167.77 117.824 168.068 118.039L168.019 117.997L177.13 123.068L179.997 122.817C180.889 122.739 181.652 123.39 181.731 124.296C181.811 125.202 181.172 125.975 180.28 126.053L176.457 126.387C175.884 126.437 175.348 126.19 175.017 125.698L175.127 125.852L166.681 121.048L163.495 121.327C162.603 121.405 161.84 120.754 161.761 119.848C161.682 118.943 162.32 118.169 163.212 118.091L167.035 117.757ZM180.033 116.62C180.405 116.587 180.768 116.676 181.076 116.871L190.574 121.892L193.569 121.63C194.458 121.519 195.288 122.197 195.367 123.103C195.414 124.011 194.746 124.82 193.852 124.865L189.838 125.217C189.264 125.267 188.665 125.025 188.333 124.533L188.443 124.687L179.615 119.917L176.302 120.206C175.413 120.317 174.584 119.639 174.504 118.733C174.457 117.825 175.124 117.017 176.019 116.971L180.033 116.62ZM197.65 115.078C198.51 115.003 199.274 115.654 199.35 116.527L199.667 120.151C199.743 121.025 199.104 121.797 198.244 121.873L198.181 121.878C197.289 121.956 196.558 121.303 196.481 120.43L196.164 116.806C196.087 115.933 196.726 115.159 197.587 115.084L197.65 115.078Z" fill="white"/>
</g>
<g filter="url(#filter9_d_4022_7360)">
<g filter="url(#filter10_ii_4022_7360)">
<path d="M244.32 67.9851C266.035 72.042 286.928 57.7268 290.985 36.0111C295.042 14.2954 280.727 -6.5974 259.011 -10.6543C237.295 -14.7112 216.403 -0.39596 212.346 21.3197C208.289 43.0354 222.604 63.9282 244.32 67.9851Z" fill="#4BAFE3"/>
</g>
<path d="M259.47 -13.1118C282.543 -8.80133 297.753 13.3973 293.443 36.4702C289.132 59.5431 266.934 74.7531 243.861 70.4426C220.788 66.1322 205.578 43.9335 209.888 20.8606C214.199 -2.2123 236.397 -17.4223 259.47 -13.1118Z" stroke="white" stroke-width="5"/>
<path fill-rule="evenodd" clip-rule="evenodd" d="M244.947 12.0986C246.635 12.0851 248.196 12.7879 249.775 13.291C250.563 13.5769 251.553 13.8648 251.791 14.8059C251.773 14.6844 251.736 14.4436 251.718 14.3221C252.343 14.706 252.952 15.1179 253.551 15.5433C253.316 15.7024 253.073 15.8522 252.824 15.9882C252.955 15.9869 253.218 15.9872 253.348 15.9859C252.393 16.6734 251.294 17.1002 250.332 17.7736C248.908 18.7357 247.649 19.9394 246.596 21.3127C246.664 21.1789 246.797 20.9083 246.864 20.7744C245.328 20.4978 243.782 19.9417 242.202 20.2607C238.534 20.7805 235.342 24.0487 235.074 27.8709C235.076 28.8374 235.034 29.8241 235.233 30.7733C235.786 32.7447 237.007 34.5043 238.636 35.6925C240.403 36.9143 242.642 37.3146 244.748 37.0348C246.86 36.6405 248.845 35.4234 250.118 33.6389C250.791 32.6342 251.261 31.4989 251.548 30.3243C254.182 30.7982 256.81 31.3124 259.443 31.7914C258.986 33.2684 258.671 34.8103 257.913 36.1719C257.389 37.2893 256.622 38.2586 255.967 39.2952C253.964 41.5188 251.57 43.5331 248.683 44.3608C247.301 44.7605 245.921 45.2734 244.465 45.2636C243.004 45.2603 241.523 45.3306 240.081 45.0612C237.734 44.3658 235.364 43.5402 233.422 41.98C231.906 40.7279 230.457 39.3114 229.505 37.548C228.783 36.2799 228.097 34.9775 227.669 33.5666C227.927 33.2602 227.927 32.8825 227.762 32.5355C227.674 32.5886 227.496 32.6966 227.409 32.7497C227.172 31.5106 227.122 30.2474 227.039 28.9908C226.887 25.8507 227.876 22.767 229.422 20.07L229.524 20.0479C232.557 14.589 238.927 11.4545 244.947 12.0986Z" fill="white"/>
<path fill-rule="evenodd" clip-rule="evenodd" d="M256.993 15.1072C260.5 14.5753 264.109 15.2572 267.273 16.822C271.581 19.2302 274.801 23.6142 275.628 28.6072C275.917 30.1052 275.818 31.6388 275.868 33.1563L275.327 36.0489C274.099 40.0642 271.547 43.7091 267.988 45.8885C264.478 48.2032 260.1 48.8757 256.055 48.0738C253.336 47.4939 250.798 46.1922 248.683 44.3608C251.57 43.5331 253.964 41.5189 255.967 39.2953C258.76 40.7113 262.322 40.1844 264.7 38.0977C266.78 36.4127 267.945 33.5828 267.675 30.8987C267.511 28.1572 265.85 25.6318 263.529 24.3143C261.411 23.1066 258.76 22.8888 256.489 23.8393C253.817 24.7869 251.974 27.3358 251.257 30.0617C248.612 29.5394 245.959 29.0643 243.313 28.5673C243.842 25.9348 244.972 23.4351 246.596 21.3128C247.649 19.9395 248.908 18.7358 250.332 17.7736C251.294 17.1003 252.393 16.6735 253.348 15.9859C253.385 15.962 253.462 15.9122 253.499 15.8882C254.694 15.7928 255.812 15.2924 256.993 15.1072Z" fill="white" fill-opacity="0.6"/>
</g>
<g filter="url(#filter11_d_4022_7360)">
<mask id="path-59-outside-1_4022_7360" maskUnits="userSpaceOnUse" x="66.158" y="350.119" width="104.593" height="104.593" fill="black">
<rect fill="white" x="66.158" y="350.119" width="104.593" height="104.593"/>
<path d="M155.067 392.975C160.243 413.26 147.996 433.899 127.711 439.075C107.427 444.251 86.787 432.003 81.611 411.719C76.435 391.434 88.6828 370.795 108.967 365.619C129.252 360.443 149.891 372.69 155.067 392.975Z"/>
</mask>
<g filter="url(#filter12_ii_4022_7360)">
<path d="M155.067 392.975C160.243 413.26 147.996 433.899 127.711 439.075C107.427 444.251 86.787 432.003 81.611 411.719C76.435 391.434 88.6828 370.795 108.967 365.619C129.252 360.443 149.891 372.69 155.067 392.975Z" fill="#00A478"/>
</g>
<path d="M127.711 439.075L126.475 434.231L127.711 439.075ZM155.067 392.975L150.223 394.211C154.716 411.82 144.084 429.737 126.475 434.231L127.711 439.075L128.948 443.92C151.908 438.061 165.771 414.699 159.912 391.739L155.067 392.975ZM127.711 439.075L126.475 434.231C108.866 438.724 90.949 428.092 86.4557 410.482L81.611 411.719L76.7662 412.955C82.625 435.915 105.987 449.779 128.948 443.92L127.711 439.075ZM81.611 411.719L86.4557 410.482C81.9625 392.874 92.5947 374.957 110.204 370.463L108.967 365.619L107.731 360.774C84.7709 366.633 70.9075 389.995 76.7662 412.955L81.611 411.719ZM108.967 365.619L110.204 370.463C127.812 365.97 145.729 376.602 150.223 394.211L155.067 392.975L159.912 391.739C154.053 368.779 130.691 354.915 107.731 360.774L108.967 365.619Z" fill="white" mask="url(#path-59-outside-1_4022_7360)"/>
<path d="M114.409 402.665L112.769 396.239L104.055 398.463L102.617 392.831L126.97 386.617L128.428 392.328L119.713 394.552L121.332 400.898L114.409 402.665Z" fill="white"/>
<path d="M116.857 398.66C125.572 396.437 133.022 396.394 133.569 398.536C134.115 400.678 127.555 404.211 118.841 406.435C110.126 408.658 102.677 408.7 102.13 406.559C101.583 404.417 108.142 400.884 116.857 398.66ZM117.019 399.295C107.897 401.623 103.78 405.208 103.433 406.226C104.205 406.874 109.233 406.858 118.355 404.531C127.558 402.182 131.898 399.808 132.266 398.869C131.493 398.221 126.141 396.968 117.019 399.295Z" fill="white"/>
<path d="M121.838 402.881L120.705 398.439C119.544 398.651 118.302 398.883 117.08 399.195C115.94 399.486 114.881 399.756 113.843 400.105L114.976 404.548C115.954 404.298 117.114 404.087 118.254 403.796C119.496 403.563 120.718 403.252 121.838 402.881Z" fill="white"/>
<path d="M118.841 406.434C117.701 406.725 116.642 406.995 115.563 407.186L118.579 419.006L125.42 417.26L122.384 405.361C121.264 405.731 120.063 406.123 118.841 406.434Z" fill="white"/>
</g>
<g filter="url(#filter13_d_4022_7360)">
<path d="M1125.78 -11.517C1154.49 -7.4817 1174.5 19.0659 1170.46 47.7786C1166.43 76.4914 1139.88 96.4964 1111.17 92.4611C1082.45 88.4258 1062.45 61.8782 1066.48 33.1655C1070.52 4.4527 1097.07 -15.5523 1125.78 -11.517Z" fill="#F0F0F0" stroke="white" stroke-width="5"/>
<path d="M1116.32 40.1695L1167.99 47.4307C1168.61 42.9618 1168.63 38.5487 1168.1 34.2744L1118.13 27.2529L1116.32 40.1695Z" fill="#D80027"/>
<path d="M1119.95 14.3365L1164.35 20.5764C1162.01 15.2045 1158.75 10.2882 1154.74 6.05411L1121.77 1.41992L1119.95 14.3365Z" fill="#D80027"/>
<path d="M1111.51 89.9853C1123.17 91.623 1134.44 89.1007 1143.85 83.5532L1082.2 74.8899C1089.72 82.8147 1099.86 88.3476 1111.51 89.9853Z" fill="#D80027"/>
<path d="M1072.6 60.3677L1157.09 72.2423C1160.08 68.6137 1162.58 64.5388 1164.46 60.1073L1068.85 46.6694C1069.44 51.4498 1070.72 56.0551 1072.6 60.3677V60.3677Z" fill="#D80027"/>
<path d="M1097.77 -5.04441L1102.28 -4.41027L1097.65 -1.95099L1098.56 3.20806L1094.79 -0.430901L1090.17 2.02841L1092.15 -2.03918C1088.02 0.519622 1084.28 3.67078 1081.05 7.31399L1082.49 7.51718L1079.55 9.0826C1079.03 9.71845 1078.53 10.3677 1078.05 11.0298L1078.78 15.1355L1076.64 13.0717C1075.87 14.2421 1075.15 15.4477 1074.48 16.6878L1075.28 21.2116L1080.46 21.9407L1075.84 24.3999L1076.75 29.559L1072.98 25.92L1070.21 27.3933C1069.67 29.3806 1069.25 31.4224 1068.96 33.5134L1118.47 40.4721C1122.32 13.1267 1122.77 9.90295 1125.43 -9.04134C1115.65 -10.416 1106.13 -8.86011 1097.77 -5.04441V-5.04441ZM1094.51 32.055L1090.74 28.4161L1086.11 30.8754L1088.41 26.167L1084.64 22.528L1089.83 23.257L1092.13 18.5486L1093.04 23.7076L1098.22 24.4367L1093.6 26.896L1094.51 32.055ZM1095.63 12.4725L1096.54 17.6315L1092.77 13.9926L1088.14 16.4519L1090.44 11.7435L1086.67 8.10448L1091.86 8.83356L1094.15 4.12511L1095.06 9.28413L1100.25 10.0132L1095.63 12.4725ZM1112.27 34.5511L1108.5 30.9121L1103.87 33.3714L1106.17 28.663L1102.4 25.024L1107.59 25.7531L1109.89 21.0446L1110.8 26.2037L1115.98 26.9327L1111.36 29.392L1112.27 34.5511ZM1113.39 14.9685L1114.3 20.1276L1110.53 16.4886L1105.9 18.9479L1108.2 14.2395L1104.43 10.6005L1109.62 11.3296L1111.91 6.62114L1112.82 11.7802L1118.01 12.5093L1113.39 14.9685ZM1115.41 0.545047L1116.32 5.7041L1112.55 2.06514L1107.93 4.52444L1110.23 -0.183982L1106.46 -3.82297L1111.64 -3.09389L1113.94 -7.80234L1114.85 -2.64332L1120.04 -1.91423L1115.41 0.545047Z" fill="#0052B4"/>
</g>
<g filter="url(#filter14_d_4022_7360)">
<g filter="url(#filter15_ii_4022_7360)">
<path d="M1241.28 363.59C1266.3 359.179 1283 335.32 1278.59 310.301C1274.18 285.282 1250.32 268.576 1225.3 272.988C1200.28 277.399 1183.58 301.258 1187.99 326.277C1192.4 351.296 1216.26 368.002 1241.28 363.59Z" fill="#D80027"/>
</g>
<path d="M1224.87 270.526C1251.25 265.874 1276.4 283.488 1281.05 309.867C1285.7 336.246 1268.09 361.401 1241.71 366.052C1215.33 370.703 1190.18 353.09 1185.53 326.711C1180.87 300.332 1198.49 275.177 1224.87 270.526Z" stroke="white" stroke-width="5"/>
<path d="M1255.54 306.243L1239.78 309.021L1237 293.264L1221.24 296.043L1224.02 311.8L1208.26 314.578L1211.04 330.335L1226.8 327.557L1229.58 343.313L1245.34 340.535L1242.56 324.778L1258.31 322L1255.54 306.243Z" fill="#F0F0F0"/>
</g>
<g filter="url(#filter16_d_4022_7360)">
<g filter="url(#filter17_ii_4022_7360)">
<path d="M925.515 49.9944C943.091 48.1471 955.842 32.4011 953.994 14.8248C952.147 -2.75148 936.401 -15.5023 918.825 -13.655C901.248 -11.8076 888.498 3.93834 890.345 21.5146C892.192 39.0909 907.938 51.8418 925.515 49.9944Z" fill="#F0F0F0"/>
</g>
<path d="M918.563 -16.1413C937.513 -18.1329 954.489 -4.38595 956.481 14.5635C958.472 33.5129 944.725 50.4891 925.776 52.4807C906.826 54.4724 889.85 40.7254 887.859 21.776C885.867 2.82652 899.614 -14.1496 918.563 -16.1413Z" stroke="white" stroke-width="5"/>
<path d="M953.289 10.7021L925.885 13.5824L925.884 13.5824L923.004 -13.8219C921.627 -13.856 920.232 -13.8028 918.825 -13.655C917.418 -13.5071 916.042 -13.269 914.702 -12.9493L917.582 14.4548L917.582 14.4549L890.178 17.3352C890.144 18.7127 890.197 20.1075 890.345 21.5146C890.493 22.9218 890.731 24.2972 891.051 25.6373L918.455 22.7571L918.455 22.757L921.335 50.1613C922.713 50.1954 924.108 50.1423 925.515 49.9944C926.921 49.8466 928.297 49.6086 929.637 49.2888L926.757 21.8847L926.757 21.8846L954.161 19.0043C954.195 17.6268 954.142 16.2319 953.994 14.8248C953.846 13.4177 953.608 12.0423 953.289 10.7021V10.7021Z" fill="#D80027"/>
</g>
<g filter="url(#filter18_d_4022_7360)">
<g filter="url(#filter19_ii_4022_7360)">
<path d="M1085.65 438.31C1105.34 441.077 1123.54 427.359 1126.31 407.67C1129.08 387.981 1115.36 369.777 1095.67 367.01C1075.98 364.243 1057.78 377.961 1055.01 397.65C1052.24 417.338 1065.96 435.542 1085.65 438.31Z" fill="#3C60A7"/>
</g>
<path d="M1096.02 364.535C1117.07 367.494 1131.74 386.962 1128.79 408.018C1125.83 429.074 1106.36 443.744 1085.3 440.785C1064.25 437.826 1049.58 418.358 1052.53 397.302C1055.49 376.246 1074.96 361.575 1096.02 364.535Z" stroke="white" stroke-width="5"/>
<path d="M1077.61 395.834C1076.21 395.669 1074.87 396.52 1074.65 398.151C1074.52 399.098 1075.14 399.948 1075.75 400.838C1076.68 402.211 1077.04 402.042 1076.81 403.269C1076.73 403.718 1075.88 404.318 1075.08 404.203C1073.88 404.033 1073.21 402.771 1073.73 401.432L1073.39 401.384L1072.02 404.551L1072.36 404.599C1072.51 404.275 1073.19 404.401 1073.46 404.428C1073.99 404.479 1074.23 404.941 1075.3 405.088C1076.77 405.289 1078.35 404.53 1078.59 402.742C1078.71 401.814 1078.23 401.104 1077.58 400.269C1076.59 398.984 1076.21 398.384 1076.54 397.515C1076.82 396.795 1077.38 396.661 1077.91 396.729C1078.9 396.855 1079.18 397.958 1079.16 399.061L1079.48 399.106L1080.68 396.466L1080.33 396.418C1080.21 396.732 1079.81 396.693 1079.5 396.627C1079.36 396.597 1079.28 396.614 1078.95 396.449C1078.6 396.273 1078.06 395.888 1077.61 395.834ZM1081.02 396.69L1080.85 397.217C1081.39 397.296 1081.59 397.311 1081.44 398.329L1080.4 405.729C1080.4 405.729 1080.5 406.074 1080.75 405.777C1080.99 405.481 1085.02 400.536 1085.02 400.536L1084.99 400.708L1084.19 406.261C1084.19 406.261 1084.35 406.615 1084.61 406.32C1084.86 406.024 1090.42 399.214 1090.42 399.214C1090.68 398.874 1090.87 398.638 1091.39 398.699L1091.59 398.176L1088.81 397.785L1088.64 398.312C1089.25 398.399 1089.67 398.36 1089.63 398.728C1089.62 398.882 1089.58 399.001 1089.45 399.178L1086.63 402.593L1086.59 402.513L1087.07 399.12C1087.1 398.968 1087.12 398.817 1087.13 398.702C1087.2 398.124 1087.36 398.133 1087.8 398.195L1087.98 397.668L1084.88 397.232L1084.71 397.759C1085.17 397.838 1085.36 398.002 1085.29 398.418L1085.18 399.18L1082.74 402.121L1082.66 402.16L1083.17 398.546C1083.18 398.419 1083.21 398.219 1083.23 398.079C1083.26 397.882 1083.26 397.557 1083.82 397.635L1084.04 397.115L1081.02 396.69ZM1092.01 398.234L1091.84 398.761C1092.09 398.784 1092.34 398.916 1092.32 399.206C1092.32 399.333 1092.22 399.505 1092.13 399.73L1089.54 405.81C1089.38 406.216 1088.85 406.37 1088.17 406.27L1088 406.797L1091.61 407.305L1091.81 406.781C1091.18 406.678 1091.24 406.507 1091.28 406.28C1091.31 406.138 1091.39 406.017 1091.47 405.855L1094.08 399.754C1094.34 399.185 1094.77 399.188 1095.43 399.266L1095.62 398.742L1092.01 398.234ZM1096.12 398.811L1095.92 399.335C1096.45 399.451 1097.21 399.553 1096.93 400.154C1096.87 400.286 1096.92 400.229 1096.84 400.442L1094.33 406.357C1094.12 406.91 1093.7 407.033 1093.21 406.978L1092.99 407.498L1096.82 408.037L1097.05 407.517C1096.21 407.397 1095.89 407.237 1096.15 406.613C1096.2 406.48 1096.31 406.246 1096.38 406.044L1097.54 403.45L1097.72 403.474C1098.47 403.577 1098.67 403.7 1098.63 404.104C1098.61 404.364 1098.57 404.572 1098.57 404.722L1098.99 404.781L1100 402.24L1099.66 402.143C1099.18 402.999 1098.42 402.905 1098.15 402.859L1097.81 402.81L1098.66 400.723C1099 399.956 1099.07 400.012 1099.67 400.088C1100.72 400.222 1101.31 400.48 1101.02 401.932L1101.36 401.981L1102.34 399.686L1096.12 398.811ZM1102.83 399.755L1101.83 402.046L1102.22 402.102C1102.51 401.462 1102.53 401.351 1102.97 401.054C1103.42 400.758 1103.88 400.679 1104.56 400.776L1101.85 407.088C1101.57 408.143 1100.96 408.053 1100.17 407.956L1099.97 408.479L1104.03 409.05L1104.2 408.572C1103.67 408.547 1103.4 408.161 1103.56 407.78C1103.62 407.633 1103.72 407.417 1103.82 407.165L1106.38 401.032C1107.66 401.21 1107.84 401.757 1107.61 402.858L1107.98 402.91L1108.95 400.615L1102.83 399.755ZM1086.35 405.536C1086.13 405.506 1085.87 405.74 1085.77 406.057C1085.67 406.375 1085.77 406.658 1085.98 406.689C1086.2 406.72 1086.46 406.485 1086.56 406.168C1086.66 405.851 1086.56 405.567 1086.35 405.536ZM1092.64 406.421C1092.43 406.39 1092.17 406.625 1092.06 406.942C1091.96 407.259 1092.06 407.543 1092.28 407.574C1092.49 407.604 1092.75 407.37 1092.85 407.053C1092.95 406.736 1092.85 406.452 1092.64 406.421ZM1098.05 407.181C1097.84 407.151 1097.57 407.385 1097.47 407.702C1097.37 408.019 1097.45 408.3 1097.66 408.33C1097.87 408.361 1098.14 408.126 1098.24 407.809C1098.34 407.492 1098.26 407.212 1098.05 407.181ZM1078.67 404.483C1078.46 404.452 1078.22 404.69 1078.12 405.007C1078.02 405.325 1078.1 405.605 1078.31 405.635C1078.52 405.666 1078.78 405.432 1078.88 405.115C1078.98 404.797 1078.88 404.514 1078.67 404.483ZM1105.27 408.222C1105.06 408.191 1104.8 408.425 1104.7 408.743C1104.6 409.06 1104.7 409.343 1104.91 409.374C1105.12 409.405 1105.39 409.17 1105.49 408.853C1105.59 408.536 1105.49 408.253 1105.27 408.222Z" fill="white" stroke="#3C60A7" stroke-width="0.0785521"/>
<path d="M1072.87 393.547L1110.31 398.808M1071.04 406.547L1108.48 411.808M1074.08 413.853L1103.51 417.989M1077.8 387.361L1107.24 391.498M1091.54 396.171L1093.41 382.864M1089.71 409.171L1087.85 422.448M1093.95 382.963C1093.95 382.963 1101.4 388.45 1101.75 397.566M1092.91 382.823C1092.91 382.823 1084.08 385.964 1081.17 394.61M1087.32 422.311C1087.32 422.311 1079.8 416.86 1079.46 407.745M1088.47 422.473C1088.47 422.473 1097.16 419.36 1100.07 410.714M1093.44 382.855C1082.51 381.317 1072.39 388.938 1070.85 399.877C1069.32 410.815 1076.94 420.928 1087.88 422.465C1098.81 424.003 1108.93 416.382 1110.47 405.444C1112 394.505 1104.38 384.392 1093.44 382.855Z" stroke="white"/>
</g>
<g filter="url(#filter20_d_4022_7360)">
<mask id="path-81-outside-2_4022_7360" maskUnits="userSpaceOnUse" x="1184.5" y="88.5047" width="98.9145" height="98.9145" fill="black">
<rect fill="white" x="1184.5" y="88.5047" width="98.9145" height="98.9145"/>
<path d="M1273.74 142.143C1271.43 164.113 1251.75 180.052 1229.78 177.743C1207.81 175.434 1191.87 155.751 1194.18 133.781C1196.49 111.81 1216.17 95.872 1238.14 98.1812C1260.11 100.49 1276.05 120.173 1273.74 142.143Z"/>
</mask>
<g filter="url(#filter21_ii_4022_7360)">
<path d="M1273.74 142.143C1271.43 164.113 1251.75 180.052 1229.78 177.743C1207.81 175.434 1191.87 155.751 1194.18 133.781C1196.49 111.81 1216.17 95.872 1238.14 98.1812C1260.11 100.49 1276.05 120.173 1273.74 142.143Z" fill="#EDEDED"/>
</g>
<path d="M1229.78 177.743L1230.3 172.77L1229.78 177.743ZM1273.74 142.143L1268.77 141.62C1266.75 160.845 1249.53 174.791 1230.3 172.77L1229.78 177.743L1229.26 182.716C1253.98 185.313 1276.12 167.382 1278.72 142.666L1273.74 142.143ZM1229.78 177.743L1230.3 172.77C1211.08 170.75 1197.13 153.527 1199.15 134.303L1194.18 133.781L1189.21 133.258C1186.61 157.975 1204.54 180.118 1229.26 182.716L1229.78 177.743ZM1194.18 133.781L1199.15 134.303C1201.17 115.079 1218.4 101.133 1237.62 103.154L1238.14 98.1812L1238.67 93.2086C1213.95 90.6107 1191.81 108.541 1189.21 133.258L1194.18 133.781ZM1238.14 98.1812L1237.62 103.154C1256.84 105.174 1270.79 122.396 1268.77 141.62L1273.74 142.143L1278.72 142.666C1281.31 117.949 1263.38 95.8064 1238.67 93.2086L1238.14 98.1812Z" fill="white" mask="url(#path-81-outside-2_4022_7360)"/>
<path d="M1204.86 145.972L1205.53 139.566L1203.65 139.368L1203.86 137.385L1209.9 138.021L1209.69 140.003L1207.81 139.806L1207.14 146.212L1204.86 145.972ZM1210.14 146.527L1211.02 138.138L1213.41 138.389C1214.35 138.488 1214.99 138.599 1215.35 138.724C1215.71 138.849 1216.02 139.026 1216.26 139.257C1216.54 139.518 1216.74 139.834 1216.87 140.207C1216.99 140.579 1217.03 140.979 1216.99 141.407C1216.92 142.057 1216.7 142.568 1216.34 142.941C1215.98 143.315 1215.49 143.536 1214.86 143.606L1216.79 147.226L1214.21 146.955L1212.63 143.469L1212.28 146.752L1210.14 146.527L1210.14 146.527ZM1212.75 142.329L1213.17 142.373C1213.66 142.425 1214.03 142.379 1214.28 142.235C1214.52 142.091 1214.66 141.839 1214.7 141.48C1214.75 141.059 1214.67 140.75 1214.48 140.55C1214.28 140.35 1213.94 140.223 1213.44 140.171L1212.98 140.123L1212.75 142.329Z" fill="#00AFD8"/>
<path d="M1216.68 147.215L1220.45 139.13L1223.32 139.431L1225.34 148.125L1223.06 147.886L1222.8 146.34L1219.55 145.998L1218.95 147.454L1216.68 147.215ZM1220.21 144.417L1222.49 144.656L1221.92 141.799C1221.9 141.712 1221.88 141.572 1221.86 141.38C1221.83 141.189 1221.8 140.942 1221.76 140.64C1221.69 140.832 1221.62 141.023 1221.55 141.215C1221.48 141.39 1221.41 141.564 1221.34 141.738L1220.21 144.417ZM1226.14 148.209L1227.02 139.82L1229.23 140.052L1231.94 144.7C1231.99 144.794 1232.08 144.981 1232.19 145.262C1232.3 145.542 1232.42 145.874 1232.55 146.258C1232.54 145.946 1232.54 145.632 1232.55 145.32C1232.55 145.077 1232.57 144.835 1232.59 144.594L1233.03 140.451L1235.22 140.682L1234.34 149.071L1232.14 148.84L1229.43 144.175C1229.37 144.081 1229.29 143.893 1229.18 143.613C1229.07 143.333 1228.95 143.005 1228.82 142.628C1228.83 142.985 1228.83 143.299 1228.82 143.573C1228.82 143.815 1228.8 144.057 1228.78 144.298L1228.34 148.441L1226.14 148.209ZM1236.8 146.589C1237.1 147.011 1237.4 147.334 1237.71 147.56C1238.02 147.786 1238.34 147.916 1238.67 147.95C1238.97 147.983 1239.23 147.927 1239.45 147.783C1239.66 147.64 1239.78 147.442 1239.81 147.19C1239.84 146.911 1239.78 146.687 1239.62 146.518C1239.47 146.349 1239.1 146.153 1238.52 145.93C1237.72 145.622 1237.17 145.272 1236.87 144.881C1236.56 144.49 1236.44 143.985 1236.51 143.366C1236.59 142.564 1236.93 141.938 1237.52 141.488C1238.11 141.039 1238.83 140.859 1239.69 140.949C1240.15 140.997 1240.58 141.105 1240.98 141.273C1241.39 141.441 1241.76 141.67 1242.1 141.961L1241.21 143.531C1240.98 143.282 1240.73 143.086 1240.47 142.945C1240.21 142.804 1239.94 142.719 1239.67 142.691C1239.4 142.662 1239.17 142.705 1238.98 142.818C1238.8 142.932 1238.69 143.092 1238.67 143.298C1238.65 143.508 1238.71 143.684 1238.84 143.826C1238.98 143.968 1239.26 144.119 1239.68 144.279L1239.78 144.318C1240.69 144.669 1241.27 145.01 1241.53 145.343C1241.71 145.57 1241.83 145.833 1241.91 146.132C1241.98 146.432 1242 146.757 1241.96 147.108C1241.87 147.999 1241.5 148.683 1240.86 149.163C1240.22 149.642 1239.41 149.83 1238.44 149.728C1237.85 149.666 1237.33 149.511 1236.87 149.262C1236.41 149.013 1235.98 148.653 1235.59 148.182L1236.8 146.589ZM1242.96 149.977L1243.84 141.588L1248.98 142.128L1248.79 143.967L1245.87 143.661L1245.72 145.117L1248.47 145.405L1248.28 147.205L1245.53 146.916L1245.19 150.211L1242.96 149.977ZM1249.34 150.648L1250.22 142.259L1255.36 142.799L1255.17 144.638L1252.26 144.332L1252.11 145.788L1254.85 146.076L1254.66 147.876L1251.92 147.587L1251.77 149.003L1254.68 149.309L1254.48 151.188L1249.34 150.648L1249.34 150.648ZM1255.99 151.347L1256.88 142.958L1259.27 143.209C1260.2 143.307 1260.85 143.419 1261.21 143.544C1261.57 143.668 1261.87 143.846 1262.12 144.077C1262.4 144.337 1262.6 144.654 1262.72 145.026C1262.85 145.399 1262.89 145.799 1262.84 146.227C1262.77 146.876 1262.56 147.388 1262.2 147.761C1261.83 148.134 1261.34 148.356 1260.72 148.425L1262.65 152.046L1260.06 151.775L1258.48 148.289L1258.14 151.572L1255.99 151.347L1255.99 151.347ZM1258.6 147.149L1259.03 147.193C1259.52 147.245 1259.89 147.199 1260.13 147.055C1260.38 146.91 1260.52 146.659 1260.56 146.299C1260.6 145.879 1260.53 145.569 1260.33 145.369C1260.14 145.169 1259.79 145.043 1259.29 144.99L1258.83 144.942L1258.6 147.149Z" fill="#00AFD8"/>
<path d="M1231.51 126.503L1232.43 132.424C1232.47 132.691 1232.51 132.968 1232.54 133.256C1232.57 133.544 1232.6 133.873 1232.63 134.244C1232.76 133.823 1232.87 133.476 1232.95 133.203C1233.04 132.93 1233.12 132.698 1233.2 132.505L1235.23 126.894L1238.56 127.244L1233.86 139.002L1230.8 138.68L1229.85 133.349C1229.81 133.161 1229.76 132.796 1229.69 132.253C1229.66 132.01 1229.63 131.82 1229.61 131.684C1229.57 131.797 1229.52 131.956 1229.45 132.161C1229.26 132.682 1229.13 133.05 1229.04 133.264L1227.02 138.282L1223.95 137.96L1221.8 125.483L1225.14 125.833L1225.92 131.773C1225.96 132.078 1225.99 132.383 1226.02 132.688C1226.05 132.992 1226.08 133.305 1226.1 133.625C1226.18 133.387 1226.26 133.15 1226.34 132.914C1226.46 132.56 1226.59 132.208 1226.72 131.857L1228.85 126.223L1231.51 126.503L1231.51 126.503ZM1238.52 139.491L1239.79 127.373L1243.13 127.724L1241.85 139.841L1238.52 139.491ZM1244.52 140.122L1245.79 128.004L1249.24 128.366C1250.59 128.509 1251.53 128.67 1252.05 128.85C1252.57 129.03 1253.01 129.287 1253.36 129.619C1253.76 129.996 1254.05 130.454 1254.23 130.992C1254.41 131.529 1254.47 132.107 1254.41 132.725C1254.31 133.664 1254 134.402 1253.48 134.941C1252.95 135.481 1252.24 135.8 1251.34 135.901L1254.13 141.132L1250.39 140.739L1248.11 135.704L1247.61 140.447L1244.52 140.122L1244.52 140.122ZM1248.28 134.057L1248.9 134.121C1249.61 134.196 1250.14 134.129 1250.5 133.921C1250.85 133.713 1251.05 133.349 1251.11 132.831C1251.17 132.224 1251.06 131.776 1250.78 131.487C1250.51 131.198 1250 131.016 1249.28 130.94L1248.62 130.87L1248.28 134.057ZM1255.38 141.264L1256.66 129.146L1264.08 129.926L1263.8 132.583L1259.6 132.141L1259.38 134.244L1263.34 134.661L1263.07 137.26L1259.11 136.843L1258.89 138.887L1263.1 139.329L1262.81 142.044L1255.38 141.264Z" fill="#006E90"/>
<path d="M1205.4 123.668L1220.52 125.257L1220.27 127.657L1205.15 126.068L1205.4 123.668Z" fill="url(#paint0_linear_4022_7360)"/>
<path d="M1204.91 128.326L1220.03 129.915L1219.78 132.314L1204.66 130.725L1204.91 128.326Z" fill="url(#paint1_linear_4022_7360)"/>
<path d="M1204.38 133.407L1219.5 134.996L1219.24 137.395L1204.12 135.806L1204.38 133.407Z" fill="url(#paint2_linear_4022_7360)"/>
</g>
<g filter="url(#filter22_d_4022_7360)">
<g filter="url(#filter23_ii_4022_7360)">
<path d="M995.847 146.834C1013.49 145.755 1026.91 130.581 1025.83 112.94C1024.76 95.3003 1009.58 81.8748 991.94 82.9537C974.3 84.0326 960.875 99.2074 961.954 116.848C963.032 134.488 978.207 147.913 995.847 146.834Z" fill="#0B4A8E"/>
</g>
<path d="M991.788 80.4583C1010.81 79.2951 1027.17 93.7695 1028.33 112.788C1029.49 131.806 1015.02 148.166 996 149.33C976.982 150.493 960.621 136.018 959.458 117C958.295 97.9819 972.769 81.6215 991.788 80.4583Z" stroke="white" stroke-width="5"/>
<path fill-rule="evenodd" clip-rule="evenodd" d="M968.424 124.138L968.953 124.052C968.996 124.229 969.069 124.357 969.172 124.435C969.276 124.513 969.41 124.547 969.577 124.537C969.753 124.526 969.883 124.481 969.968 124.401C970.053 124.32 970.092 124.23 970.086 124.13C970.082 124.066 970.06 124.012 970.02 123.969C969.979 123.927 969.912 123.891 969.816 123.864C969.751 123.846 969.603 123.815 969.372 123.773C969.075 123.718 968.865 123.642 968.74 123.543C968.565 123.405 968.471 123.228 968.458 123.014C968.45 122.877 968.481 122.745 968.552 122.621C968.623 122.496 968.73 122.398 968.873 122.326C969.017 122.255 969.192 122.212 969.401 122.199C969.74 122.179 970.001 122.238 970.182 122.377C970.363 122.516 970.465 122.71 970.489 122.959L969.942 123.014C969.91 122.876 969.854 122.779 969.773 122.722C969.692 122.666 969.575 122.642 969.421 122.652C969.262 122.661 969.14 122.702 969.054 122.773C968.999 122.818 968.973 122.876 968.977 122.946C968.981 123.01 969.012 123.063 969.069 123.106C969.141 123.159 969.312 123.21 969.582 123.256C969.852 123.302 970.052 123.355 970.184 123.415C970.315 123.474 970.421 123.56 970.5 123.672C970.579 123.785 970.624 123.927 970.634 124.099C970.644 124.255 970.61 124.403 970.532 124.544C970.454 124.686 970.338 124.794 970.184 124.87C970.03 124.946 969.836 124.991 969.6 125.005C969.258 125.026 968.99 124.963 968.796 124.815C968.603 124.666 968.479 124.441 968.424 124.138Z" fill="white"/>
<path fill-rule="evenodd" clip-rule="evenodd" d="M971.131 122.892L971.652 122.861L971.773 124.824L971.251 124.855L971.131 122.892ZM971.085 122.145L971.607 122.113L971.636 122.592L971.115 122.624L971.085 122.145Z" fill="white"/>
<path fill-rule="evenodd" clip-rule="evenodd" d="M974.206 124.675L973.685 124.707L973.623 123.703C973.61 123.491 973.591 123.354 973.565 123.293C973.539 123.232 973.5 123.185 973.448 123.154C973.397 123.122 973.336 123.109 973.266 123.113C973.176 123.119 973.097 123.148 973.029 123.202C972.961 123.256 972.916 123.324 972.895 123.407C972.873 123.49 972.87 123.642 972.883 123.862L972.938 124.753L972.416 124.785L972.296 122.822L972.78 122.792L972.797 123.08C972.955 122.845 973.164 122.72 973.423 122.704C973.538 122.697 973.644 122.711 973.741 122.747C973.839 122.782 973.914 122.831 973.966 122.892C974.019 122.953 974.057 123.024 974.081 123.105C974.105 123.185 974.122 123.301 974.131 123.453L974.206 124.675Z" fill="white"/>
<path fill-rule="evenodd" clip-rule="evenodd" d="M975.198 123.587C975.211 123.796 975.26 123.946 975.346 124.038C975.432 124.131 975.534 124.173 975.651 124.166C975.777 124.158 975.88 124.102 975.961 123.997C976.041 123.892 976.076 123.742 976.064 123.547C976.052 123.343 976.001 123.194 975.912 123.1C975.822 123.007 975.714 122.963 975.587 122.971C975.464 122.979 975.365 123.034 975.291 123.135C975.216 123.238 975.186 123.388 975.198 123.587ZM974.801 124.768L975.396 124.797C975.41 124.869 975.436 124.918 975.474 124.944C975.526 124.98 975.605 124.995 975.711 124.988C975.847 124.98 975.948 124.953 976.013 124.908C976.057 124.878 976.089 124.833 976.109 124.771C976.123 124.726 976.126 124.647 976.119 124.531L976.103 124.244C975.962 124.463 975.773 124.579 975.536 124.594C975.272 124.61 975.057 124.511 974.889 124.297C974.757 124.128 974.683 123.912 974.667 123.649C974.647 123.319 974.711 123.062 974.859 122.878C975.006 122.695 975.198 122.596 975.434 122.581C975.677 122.566 975.884 122.661 976.055 122.865L976.038 122.593L976.522 122.563L976.63 124.328C976.644 124.56 976.635 124.735 976.604 124.852C976.573 124.969 976.525 125.062 976.46 125.132C976.394 125.201 976.305 125.258 976.192 125.302C976.079 125.347 975.934 125.374 975.758 125.385C975.425 125.405 975.185 125.362 975.038 125.256C974.892 125.15 974.813 125.008 974.803 124.832C974.801 124.814 974.801 124.793 974.801 124.768Z" fill="white"/>
<path fill-rule="evenodd" clip-rule="evenodd" d="M977.101 121.777L977.622 121.745L977.788 124.456L977.267 124.488L977.101 121.777Z" fill="white"/>
<path fill-rule="evenodd" clip-rule="evenodd" d="M979.533 123.199C979.52 123.047 979.474 122.933 979.395 122.858C979.316 122.783 979.223 122.749 979.116 122.755C979.002 122.762 978.91 122.81 978.841 122.898C978.772 122.987 978.742 123.103 978.752 123.247L979.533 123.199ZM979.539 123.728L980.06 123.783C980.005 123.976 979.908 124.127 979.77 124.234C979.632 124.342 979.455 124.403 979.239 124.416C978.896 124.437 978.636 124.34 978.458 124.126C978.317 123.955 978.239 123.733 978.222 123.459C978.202 123.133 978.271 122.872 978.431 122.676C978.59 122.481 978.8 122.375 979.06 122.359C979.353 122.341 979.59 122.424 979.771 122.608C979.953 122.792 980.052 123.084 980.069 123.485L978.763 123.565C978.776 123.719 978.825 123.837 978.911 123.918C978.998 123.999 979.101 124.036 979.222 124.028C979.304 124.023 979.372 123.997 979.425 123.949C979.478 123.902 979.516 123.828 979.539 123.728Z" fill="white"/>
<path fill-rule="evenodd" clip-rule="evenodd" d="M981.825 124.209L981.66 121.498L983.665 121.375L983.693 121.833L982.236 121.922L982.273 122.524L983.628 122.441L983.655 122.898L982.301 122.981L982.346 123.718L983.856 123.626L983.884 124.083L981.825 124.209Z" fill="white"/>
<path fill-rule="evenodd" clip-rule="evenodd" d="M985.748 123.969L985.73 123.675C985.665 123.784 985.576 123.873 985.463 123.942C985.35 124.011 985.228 124.05 985.099 124.057C984.966 124.066 984.846 124.044 984.738 123.992C984.629 123.941 984.548 123.864 984.495 123.762C984.441 123.66 984.409 123.516 984.398 123.331L984.322 122.086L984.843 122.054L984.898 122.957C984.915 123.233 984.935 123.402 984.958 123.463C984.981 123.525 985.019 123.572 985.072 123.605C985.124 123.638 985.189 123.652 985.267 123.648C985.356 123.642 985.434 123.613 985.501 123.56C985.569 123.507 985.613 123.444 985.635 123.37C985.656 123.296 985.658 123.119 985.641 122.837L985.59 122.008L986.112 121.976L986.232 123.94L985.748 123.969Z" fill="white"/>
<path fill-rule="evenodd" clip-rule="evenodd" d="M987.378 123.869L986.856 123.901L986.736 121.938L987.22 121.909L987.237 122.188C987.312 122.051 987.38 121.959 987.444 121.912C987.507 121.864 987.581 121.838 987.665 121.833C987.783 121.826 987.899 121.852 988.013 121.91L987.882 122.375C987.791 122.323 987.708 122.3 987.632 122.305C987.559 122.309 987.499 122.333 987.45 122.376C987.402 122.419 987.367 122.494 987.344 122.601C987.321 122.707 987.32 122.928 987.34 123.262L987.378 123.869Z" fill="white"/>
<path fill-rule="evenodd" clip-rule="evenodd" d="M988.813 122.796C988.825 122.992 988.88 123.139 988.979 123.237C989.078 123.335 989.196 123.38 989.332 123.372C989.468 123.364 989.578 123.305 989.664 123.195C989.75 123.086 989.787 122.932 989.775 122.734C989.763 122.541 989.708 122.395 989.609 122.297C989.511 122.199 989.394 122.154 989.258 122.162C989.122 122.17 989.011 122.229 988.924 122.339C988.838 122.448 988.801 122.601 988.813 122.796ZM988.279 122.801C988.268 122.628 988.3 122.458 988.376 122.29C988.451 122.123 988.563 121.992 988.714 121.897C988.865 121.802 989.037 121.749 989.229 121.737C989.526 121.719 989.775 121.801 989.977 121.983C990.179 122.165 990.289 122.404 990.307 122.699C990.325 122.998 990.244 123.251 990.064 123.459C989.885 123.666 989.649 123.779 989.358 123.797C989.179 123.808 989.004 123.777 988.836 123.706C988.668 123.634 988.536 123.522 988.442 123.37C988.347 123.217 988.293 123.028 988.279 122.801Z" fill="white"/>
<path fill-rule="evenodd" clip-rule="evenodd" d="M992.475 121.296L992.523 122.07L992.821 122.052C993.036 122.039 993.179 122.016 993.25 121.983C993.321 121.95 993.375 121.901 993.413 121.838C993.45 121.775 993.466 121.703 993.461 121.622C993.455 121.523 993.421 121.443 993.36 121.382C993.298 121.321 993.222 121.285 993.133 121.274C993.067 121.266 992.936 121.267 992.739 121.279L992.475 121.296ZM992.065 123.583L991.899 120.872L992.777 120.818C993.109 120.798 993.327 120.798 993.43 120.819C993.587 120.85 993.723 120.931 993.836 121.061C993.949 121.191 994.012 121.363 994.025 121.579C994.035 121.746 994.014 121.887 993.96 122.005C993.907 122.122 993.836 122.215 993.747 122.286C993.658 122.356 993.566 122.405 993.471 122.432C993.342 122.466 993.154 122.49 992.907 122.505L992.551 122.527L992.613 123.549L992.065 123.583Z" fill="white"/>
<path fill-rule="evenodd" clip-rule="evenodd" d="M995.72 122.415C995.655 122.441 995.552 122.474 995.41 122.514C995.268 122.553 995.176 122.59 995.133 122.622C995.069 122.674 995.039 122.738 995.043 122.812C995.048 122.885 995.079 122.946 995.136 122.997C995.193 123.046 995.264 123.069 995.347 123.064C995.441 123.058 995.528 123.022 995.609 122.955C995.669 122.904 995.707 122.844 995.722 122.774C995.733 122.729 995.734 122.644 995.727 122.518L995.72 122.415ZM994.996 122.032L994.523 121.975C994.564 121.782 994.647 121.635 994.77 121.536C994.894 121.437 995.084 121.379 995.339 121.364C995.571 121.349 995.745 121.366 995.862 121.414C995.979 121.462 996.063 121.527 996.114 121.609C996.165 121.691 996.198 121.845 996.212 122.071L996.244 122.679C996.254 122.851 996.271 122.979 996.292 123.059C996.314 123.141 996.35 123.227 996.402 123.318L995.885 123.349C995.87 123.316 995.85 123.267 995.826 123.201C995.816 123.171 995.808 123.152 995.804 123.142C995.721 123.234 995.63 123.305 995.532 123.354C995.433 123.404 995.327 123.432 995.213 123.439C995.011 123.451 994.848 123.406 994.725 123.303C994.602 123.2 994.535 123.065 994.525 122.897C994.518 122.786 994.539 122.685 994.586 122.595C994.634 122.505 994.704 122.433 994.797 122.381C994.89 122.329 995.025 122.28 995.203 122.234C995.443 122.174 995.608 122.121 995.7 122.076L995.696 122.023C995.69 121.922 995.661 121.852 995.609 121.811C995.557 121.771 995.462 121.756 995.324 121.764C995.231 121.77 995.16 121.792 995.11 121.832C995.06 121.872 995.022 121.939 994.996 122.032Z" fill="white"/>
<path fill-rule="evenodd" clip-rule="evenodd" d="M996.543 121.338L997.096 121.305L997.652 122.669L998.027 121.248L998.564 121.215L997.883 123.499C997.844 123.617 997.806 123.707 997.769 123.77C997.731 123.833 997.686 123.885 997.635 123.926C997.583 123.967 997.519 124.001 997.442 124.026C997.365 124.052 997.277 124.068 997.179 124.074C997.079 124.081 996.979 124.076 996.882 124.061L996.809 123.657C996.891 123.668 996.966 123.672 997.031 123.668C997.153 123.66 997.24 123.619 997.294 123.543C997.348 123.468 997.387 123.374 997.411 123.261L996.543 121.338Z" fill="white"/>
<path fill-rule="evenodd" clip-rule="evenodd" d="M998.971 121.19L999.449 121.161L999.466 121.429C999.624 121.207 999.823 121.089 1000.06 121.075C1000.19 121.067 1000.3 121.086 1000.39 121.132C1000.49 121.179 1000.57 121.252 1000.64 121.354C1000.71 121.244 1000.8 121.159 1000.9 121.101C1001 121.043 1001.1 121.011 1001.22 121.004C1001.36 120.995 1001.48 121.017 1001.59 121.07C1001.69 121.122 1001.77 121.204 1001.83 121.314C1001.87 121.396 1001.89 121.531 1001.91 121.719L1001.98 122.976L1001.46 123.008L1001.39 121.884C1001.38 121.688 1001.36 121.564 1001.32 121.509C1001.26 121.438 1001.19 121.405 1001.09 121.411C1001.01 121.416 1000.95 121.442 1000.89 121.491C1000.83 121.539 1000.78 121.607 1000.76 121.695C1000.74 121.782 1000.73 121.919 1000.74 122.104L1000.8 123.048L1000.28 123.08L1000.21 122.002C1000.2 121.811 1000.18 121.688 1000.16 121.633C1000.14 121.579 1000.11 121.539 1000.07 121.515C1000.03 121.49 999.975 121.479 999.909 121.483C999.829 121.488 999.758 121.514 999.697 121.562C999.635 121.609 999.593 121.674 999.57 121.757C999.548 121.84 999.542 121.976 999.554 122.165L999.612 123.121L999.091 123.153L998.971 121.19Z" fill="white"/>
<path fill-rule="evenodd" clip-rule="evenodd" d="M1003.71 121.721C1003.7 121.568 1003.65 121.455 1003.57 121.379C1003.49 121.304 1003.4 121.27 1003.29 121.277C1003.18 121.284 1003.09 121.332 1003.02 121.42C1002.95 121.508 1002.92 121.625 1002.93 121.769L1003.71 121.721ZM1003.71 122.25L1004.24 122.304C1004.18 122.497 1004.08 122.648 1003.95 122.756C1003.81 122.864 1003.63 122.924 1003.41 122.937C1003.07 122.958 1002.81 122.862 1002.63 122.648C1002.49 122.477 1002.41 122.254 1002.4 121.98C1002.38 121.654 1002.45 121.393 1002.61 121.198C1002.77 121.002 1002.98 120.897 1003.24 120.881C1003.53 120.863 1003.77 120.946 1003.95 121.129C1004.13 121.313 1004.23 121.606 1004.24 122.007L1002.94 122.086C1002.95 122.241 1003 122.358 1003.09 122.439C1003.17 122.52 1003.28 122.557 1003.4 122.55C1003.48 122.545 1003.55 122.518 1003.6 122.471C1003.65 122.423 1003.69 122.349 1003.71 122.25Z" fill="white"/>
<path fill-rule="evenodd" clip-rule="evenodd" d="M1006.62 122.693L1006.09 122.725L1006.03 121.721C1006.02 121.508 1006 121.372 1005.97 121.311C1005.95 121.25 1005.91 121.203 1005.86 121.172C1005.81 121.14 1005.74 121.127 1005.68 121.131C1005.59 121.136 1005.51 121.166 1005.44 121.22C1005.37 121.274 1005.33 121.342 1005.3 121.425C1005.28 121.508 1005.28 121.66 1005.29 121.88L1005.35 122.771L1004.83 122.802L1004.71 120.839L1005.19 120.81L1005.21 121.098C1005.36 120.863 1005.57 120.738 1005.83 120.722C1005.95 120.715 1006.05 120.729 1006.15 120.765C1006.25 120.8 1006.32 120.849 1006.38 120.91C1006.43 120.971 1006.47 121.042 1006.49 121.122C1006.51 121.203 1006.53 121.319 1006.54 121.471L1006.62 122.693Z" fill="white"/>
<path fill-rule="evenodd" clip-rule="evenodd" d="M1008.03 120.636L1008.06 121.05L1007.7 121.071L1007.75 121.866C1007.76 122.026 1007.77 122.12 1007.78 122.146C1007.79 122.172 1007.8 122.193 1007.83 122.209C1007.85 122.225 1007.88 122.232 1007.92 122.23C1007.96 122.227 1008.03 122.206 1008.12 122.168L1008.19 122.567C1008.07 122.626 1007.94 122.661 1007.79 122.67C1007.69 122.676 1007.61 122.665 1007.53 122.638C1007.45 122.611 1007.4 122.574 1007.36 122.526C1007.32 122.478 1007.29 122.412 1007.27 122.327C1007.26 122.267 1007.25 122.145 1007.24 121.961L1007.18 121.103L1006.95 121.118L1006.92 120.704L1007.16 120.689L1007.13 120.297L1007.64 119.958L1007.68 120.657L1008.03 120.636Z" fill="white"/>
<path fill-rule="evenodd" clip-rule="evenodd" d="M1008.41 122.027L1008.93 121.914C1008.96 122.013 1009.01 122.087 1009.08 122.135C1009.15 122.183 1009.25 122.203 1009.37 122.195C1009.5 122.187 1009.6 122.156 1009.67 122.102C1009.71 122.065 1009.73 122.017 1009.73 121.958C1009.72 121.919 1009.71 121.887 1009.68 121.862C1009.65 121.839 1009.6 121.82 1009.5 121.804C1009.08 121.737 1008.8 121.668 1008.69 121.598C1008.52 121.502 1008.44 121.359 1008.43 121.17C1008.42 120.999 1008.47 120.852 1008.6 120.727C1008.73 120.603 1008.94 120.532 1009.22 120.515C1009.49 120.498 1009.69 120.529 1009.83 120.608C1009.97 120.687 1010.06 120.81 1010.12 120.978L1009.64 121.099C1009.61 121.024 1009.57 120.968 1009.51 120.931C1009.45 120.893 1009.36 120.878 1009.25 120.885C1009.11 120.894 1009.02 120.919 1008.96 120.961C1008.92 120.991 1008.9 121.027 1008.91 121.071C1008.91 121.108 1008.93 121.139 1008.96 121.163C1009.01 121.194 1009.18 121.233 1009.46 121.28C1009.74 121.326 1009.94 121.392 1010.06 121.477C1010.17 121.563 1010.23 121.689 1010.24 121.855C1010.25 122.036 1010.19 122.196 1010.05 122.336C1009.9 122.475 1009.68 122.554 1009.39 122.572C1009.12 122.588 1008.91 122.547 1008.75 122.449C1008.58 122.35 1008.47 122.21 1008.41 122.027Z" fill="white"/>
<path fill-rule="evenodd" clip-rule="evenodd" d="M1013.39 121.204L1012.95 120.221L1012.64 121.25L1013.39 121.204ZM1014.46 122.213L1013.87 122.249L1013.6 121.65L1012.5 121.717L1012.32 122.344L1011.74 122.379L1012.62 119.604L1013.2 119.569L1014.46 122.213Z" fill="white"/>
<path fill-rule="evenodd" clip-rule="evenodd" d="M1015.35 122.158L1014.83 122.19L1014.71 120.227L1015.2 120.197L1015.21 120.477C1015.29 120.34 1015.36 120.248 1015.42 120.2C1015.48 120.153 1015.56 120.127 1015.64 120.122C1015.76 120.114 1015.88 120.14 1015.99 120.199L1015.86 120.663C1015.77 120.612 1015.68 120.589 1015.61 120.593C1015.54 120.598 1015.47 120.622 1015.43 120.665C1015.38 120.708 1015.34 120.783 1015.32 120.89C1015.3 120.996 1015.3 121.217 1015.32 121.551L1015.35 122.158Z" fill="white"/>
<path fill-rule="evenodd" clip-rule="evenodd" d="M1017.54 120.875C1017.53 120.722 1017.48 120.608 1017.4 120.533C1017.32 120.458 1017.23 120.424 1017.12 120.43C1017.01 120.437 1016.92 120.485 1016.85 120.574C1016.78 120.662 1016.75 120.778 1016.76 120.922L1017.54 120.875ZM1017.55 121.403L1018.07 121.458C1018.01 121.651 1017.92 121.802 1017.78 121.91C1017.64 122.017 1017.46 122.078 1017.25 122.091C1016.91 122.112 1016.64 122.016 1016.47 121.802C1016.33 121.63 1016.25 121.408 1016.23 121.134C1016.21 120.808 1016.28 120.547 1016.44 120.351C1016.6 120.156 1016.81 120.05 1017.07 120.034C1017.36 120.016 1017.6 120.099 1017.78 120.283C1017.96 120.467 1018.06 120.759 1018.08 121.16L1016.77 121.24C1016.78 121.395 1016.83 121.512 1016.92 121.593C1017.01 121.674 1017.11 121.711 1017.23 121.704C1017.31 121.699 1017.38 121.672 1017.43 121.625C1017.49 121.577 1017.52 121.503 1017.55 121.403Z" fill="white"/>
<path fill-rule="evenodd" clip-rule="evenodd" d="M1019.69 120.949C1019.62 120.975 1019.52 121.008 1019.38 121.048C1019.23 121.088 1019.14 121.124 1019.1 121.156C1019.04 121.209 1019.01 121.272 1019.01 121.346C1019.01 121.419 1019.05 121.481 1019.1 121.531C1019.16 121.581 1019.23 121.603 1019.31 121.598C1019.41 121.592 1019.49 121.556 1019.58 121.489C1019.64 121.438 1019.67 121.378 1019.69 121.308C1019.7 121.263 1019.7 121.178 1019.69 121.053L1019.69 120.949ZM1018.96 120.567L1018.49 120.509C1018.53 120.316 1018.61 120.17 1018.74 120.07C1018.86 119.971 1019.05 119.913 1019.31 119.898C1019.54 119.884 1019.71 119.901 1019.83 119.948C1019.95 119.997 1020.03 120.062 1020.08 120.143C1020.13 120.225 1020.16 120.379 1020.18 120.605L1020.21 121.213C1020.22 121.386 1020.24 121.513 1020.26 121.594C1020.28 121.675 1020.32 121.761 1020.37 121.852L1019.85 121.883C1019.84 121.85 1019.82 121.801 1019.79 121.735C1019.78 121.705 1019.77 121.686 1019.77 121.676C1019.69 121.768 1019.6 121.839 1019.5 121.889C1019.4 121.938 1019.29 121.966 1019.18 121.973C1018.98 121.986 1018.81 121.94 1018.69 121.838C1018.57 121.735 1018.5 121.599 1018.49 121.431C1018.49 121.32 1018.51 121.219 1018.55 121.129C1018.6 121.039 1018.67 120.967 1018.76 120.915C1018.86 120.863 1018.99 120.814 1019.17 120.768C1019.41 120.708 1019.58 120.655 1019.67 120.61L1019.66 120.557C1019.66 120.456 1019.63 120.386 1019.58 120.346C1019.52 120.306 1019.43 120.29 1019.29 120.298C1019.2 120.304 1019.13 120.327 1019.08 120.366C1019.03 120.406 1018.99 120.473 1018.96 120.567Z" fill="white"/>
<path fill-rule="evenodd" clip-rule="evenodd" d="M979.176 110.959L975.625 111.176C975.59 110.593 975.497 110.206 975.349 110.015C975.12 109.734 974.528 109.622 973.573 109.68C972.646 109.737 972.037 109.859 971.748 110.047C971.458 110.236 971.331 110.616 971.366 111.186C971.398 111.703 971.551 112.035 971.827 112.182C972.025 112.286 972.281 112.338 972.597 112.339L973.316 112.346C974.857 112.354 975.819 112.367 976.204 112.385C977.425 112.433 978.324 112.702 978.902 113.192C979.357 113.574 979.646 114.092 979.768 114.745C979.839 115.137 979.891 115.581 979.921 116.077C979.991 117.219 979.933 118.062 979.747 118.605C979.411 119.602 978.561 120.271 977.195 120.613C976.623 120.758 975.741 120.866 974.55 120.939C972.561 121.061 971.169 121.027 970.372 120.837C969.394 120.604 968.724 120.052 968.364 119.181C968.163 118.697 968.028 117.877 967.957 116.723L971.507 116.506C971.515 116.635 971.522 116.733 971.526 116.801C971.563 117.417 971.765 117.802 972.129 117.957C972.381 118.064 972.68 118.109 973.028 118.096L974.333 118.016C974.999 117.975 975.422 117.915 975.602 117.835C975.92 117.687 976.122 117.467 976.206 117.175C976.25 116.996 976.263 116.766 976.246 116.487C976.208 115.863 975.957 115.497 975.493 115.388C975.32 115.345 974.524 115.318 973.105 115.309C971.965 115.298 971.172 115.268 970.726 115.219C969.551 115.073 968.749 114.673 968.321 114.017C967.946 113.461 967.722 112.598 967.651 111.43C967.596 110.541 967.645 109.822 967.795 109.274C967.946 108.727 968.217 108.301 968.609 107.997C969.181 107.533 969.932 107.235 970.859 107.103C971.631 106.988 972.489 106.901 973.436 106.843C974.926 106.752 975.993 106.773 976.636 106.904C978.207 107.224 979.05 108.341 979.167 110.252C979.177 110.409 979.179 110.644 979.176 110.959Z" fill="white"/>
<path fill-rule="evenodd" clip-rule="evenodd" d="M998.769 112.478L1001.15 112.333C1001.9 112.259 1002.36 112.173 1002.52 112.072C1002.73 111.935 1002.87 111.677 1002.92 111.3C1002.96 111.049 1002.96 110.679 1002.93 110.189C1002.89 109.589 1002.82 109.147 1002.7 108.862C1002.54 108.464 1002.2 108.236 1001.67 108.178C1001.57 108.171 1001.32 108.179 1000.93 108.202L998.517 108.35L998.769 112.478ZM995.378 119.665L994.511 105.479L1001.62 105.044C1002.6 104.984 1003.34 105.018 1003.87 105.146C1005.06 105.441 1005.89 106.144 1006.36 107.254C1006.6 107.836 1006.76 108.726 1006.84 109.923C1006.92 111.362 1006.87 112.404 1006.68 113.047C1006.3 114.32 1005.41 115.095 1004 115.367C1003.84 115.405 1003.13 115.474 1001.88 115.57L1001.25 115.63L998.971 115.769L999.195 119.432L995.378 119.665Z" fill="white"/>
<path fill-rule="evenodd" clip-rule="evenodd" d="M1014.46 113.263L1012.29 107.223L1010.93 113.479L1014.46 113.263ZM1015.38 115.981L1010.28 116.293L1009.74 118.787L1005.8 119.028L1009.19 104.581L1014.95 104.229L1020.13 118.152L1016.26 118.388L1015.38 115.981Z" fill="white"/>
<path fill-rule="evenodd" clip-rule="evenodd" d="M989.366 107.797C990.94 107.7 992.389 108.34 993.382 109.42L994.097 107.605C992.736 106.467 990.939 105.824 989.007 105.942C986.001 106.126 983.539 108.1 982.641 110.737L981.037 110.835L980.214 112.924L982.278 112.798C982.274 112.988 982.275 113.177 982.287 113.369C982.301 113.602 982.327 113.831 982.364 114.057L981.327 114.121L980.504 116.211L983.016 116.057C984.255 118.498 986.903 120.103 989.862 119.922C991.354 119.83 992.711 119.299 993.81 118.465L993.658 115.974C992.799 117.082 991.49 117.829 989.985 117.921C988.226 118.028 986.623 117.215 985.638 115.897L990.897 115.575L991.72 113.485L984.74 113.912C984.689 113.67 984.655 113.421 984.639 113.166C984.628 112.994 984.627 112.823 984.633 112.654L992.229 112.19L993.052 110.1L985.166 110.582C985.946 109.023 987.507 107.91 989.366 107.797Z" fill="#F6BC25"/>
</g>
<g filter="url(#filter24_dii_4022_7360)">
<path d="M1099.33 285.494C1130.56 279.758 1151.23 249.788 1145.49 218.554C1139.76 187.32 1109.79 166.65 1078.55 172.386C1047.32 178.122 1026.65 208.092 1032.39 239.326C1038.12 270.56 1068.09 291.23 1099.33 285.494Z" fill="#0052B4"/>
<path d="M1078.1 169.927C1110.69 163.942 1141.97 185.511 1147.95 218.103C1153.94 250.695 1132.37 281.968 1099.78 287.953C1067.19 293.938 1035.91 272.369 1029.93 239.777C1023.94 207.185 1045.51 175.912 1078.1 169.927Z" stroke="white" stroke-width="5"/>
</g>
<path d="M1081.15 186.525L1084.68 193.054L1091.98 191.713L1086.86 197.089L1090.4 203.618L1083.7 200.411L1078.58 205.787L1079.56 198.43L1072.87 195.223L1080.17 193.882L1081.15 186.525Z" fill="#FFDA44"/>
<path d="M1053.44 204.456L1060.56 206.575L1064.77 200.465L1064.95 207.886L1072.07 210.006L1065.06 212.472L1065.25 219.893L1060.74 213.996L1053.74 216.463L1057.95 210.352L1053.44 204.456Z" fill="#FFDA44"/>
<path d="M1046.53 236.728L1053.05 233.197L1051.71 225.896L1057.09 231.015L1063.62 227.483L1060.41 234.178L1065.79 239.296L1058.43 238.315L1055.22 245.01L1053.88 237.709L1046.53 236.728Z" fill="#FFDA44"/>
<path d="M1064.46 264.44L1066.58 257.326L1060.47 253.112L1067.89 252.93L1070.01 245.816L1072.47 252.817L1079.89 252.635L1074 257.144L1076.46 264.145L1070.35 259.931L1064.46 264.44Z" fill="#FFDA44"/>
<path d="M1096.73 271.355L1093.2 264.826L1085.9 266.166L1091.02 260.79L1087.48 254.262L1094.18 257.468L1099.3 252.092L1098.32 259.45L1105.01 262.656L1097.71 263.997L1096.73 271.355Z" fill="#FFDA44"/>
<path d="M1124.44 253.424L1117.33 251.305L1113.11 257.415L1112.93 249.994L1105.82 247.874L1112.82 245.408L1112.64 237.988L1117.15 243.884L1124.15 241.417L1119.93 247.528L1124.44 253.424Z" fill="#FFDA44"/>
<path d="M1131.36 221.15L1124.83 224.681L1126.17 231.982L1120.79 226.863L1114.26 230.394L1117.47 223.7L1112.09 218.582L1119.45 219.563L1122.66 212.868L1124 220.169L1131.36 221.15Z" fill="#FFDA44"/>
<path d="M1113.43 193.44L1111.31 200.554L1117.42 204.768L1109.99 204.95L1107.88 212.063L1105.41 205.062L1097.99 205.244L1103.88 200.735L1101.42 193.735L1107.53 197.949L1113.43 193.44Z" fill="#FFDA44"/>
<g filter="url(#filter25_d_4022_7360)">
<g filter="url(#filter26_ii_4022_7360)">
<path d="M32.9631 355.495C55.7959 352.286 71.7042 331.175 68.4952 308.342C65.2863 285.51 44.1753 269.601 21.3425 272.81C-1.49035 276.019 -17.3986 297.13 -14.1897 319.963C-10.9808 342.796 10.1303 358.704 32.9631 355.495Z" fill="#82BD39"/>
</g>
<path d="M20.9948 270.335C45.1948 266.934 67.5694 283.795 70.9705 307.995C74.3714 332.195 57.5111 354.569 33.3112 357.97C9.11121 361.372 -13.2641 344.511 -16.6653 320.311C-20.0664 296.111 -3.20529 273.736 20.9948 270.335Z" stroke="white" stroke-width="5"/>
<path fill-rule="evenodd" clip-rule="evenodd" d="M26.4339 325.137L31.0421 330.289L32.7654 342.551L17.4428 337.363L12.9912 305.689C12.9244 305.22 13.0463 304.748 13.3256 304.394L14.7322 302.581C15.0025 302.227 15.4022 302.019 15.8302 302.01C16.2583 302.002 16.6736 302.193 16.971 302.535L32.7264 320.068L40.6274 324.048L36.8739 297.34L30.0052 294.635L32.0509 311.428L27.9707 306.838L25.2334 288.478L40.5337 293.987L44.9651 325.518L42.1536 328.997L31.0527 323.974L17.372 308.743L20.8095 334.321L28.0963 337.285L26.4339 325.137Z" fill="white"/>
</g>
<defs>
<filter id="filter0_f_4022_7360" x="-496.599" y="-457.001" width="1917.58" height="1387.85" filterUnits="userSpaceOnUse" color-interpolation-filters="sRGB">
<feFlood flood-opacity="0" result="BackgroundImageFix"/>
<feBlend mode="normal" in="SourceGraphic" in2="BackgroundImageFix" result="shape"/>
<feGaussianBlur stdDeviation="2" result="effect1_foregroundBlur_4022_7360"/>
</filter>
<filter id="filter1_d_4022_7360" x="73" y="173" width="160.944" height="160.944" filterUnits="userSpaceOnUse" color-interpolation-filters="sRGB">
<feFlood flood-opacity="0" result="BackgroundImageFix"/>
<feColorMatrix in="SourceAlpha" type="matrix" values="0 0 0 0 0 0 0 0 0 0 0 0 0 0 0 0 0 0 127 0" result="hardAlpha"/>
<feOffset dy="2"/>
<feGaussianBlur stdDeviation="12"/>
<feComposite in2="hardAlpha" operator="out"/>
<feColorMatrix type="matrix" values="0 0 0 0 0.113725 0 0 0 0 0.113725 0 0 0 0 0.121569 0 0 0 0.12 0"/>
<feBlend mode="normal" in2="BackgroundImageFix" result="effect1_dropShadow_4022_7360"/>
<feBlend mode="normal" in="SourceGraphic" in2="effect1_dropShadow_4022_7360" result="shape"/>
</filter>
<filter id="filter2_ii_4022_7360" x="92.4652" y="188.465" width="120.014" height="126.014" filterUnits="userSpaceOnUse" color-interpolation-filters="sRGB">
<feFlood flood-opacity="0" result="BackgroundImageFix"/>
<feBlend mode="normal" in="SourceGraphic" in2="BackgroundImageFix" result="shape"/>
<feColorMatrix in="SourceAlpha" type="matrix" values="0 0 0 0 0 0 0 0 0 0 0 0 0 0 0 0 0 0 127 0" result="hardAlpha"/>
<feOffset dx="-6" dy="-10"/>
<feGaussianBlur stdDeviation="4"/>
<feComposite in2="hardAlpha" operator="arithmetic" k2="-1" k3="1"/>
<feColorMatrix type="matrix" values="0 0 0 0 0.113725 0 0 0 0 0.113725 0 0 0 0 0.121569 0 0 0 0.18 0"/>
<feBlend mode="normal" in2="shape" result="effect1_innerShadow_4022_7360"/>
<feColorMatrix in="SourceAlpha" type="matrix" values="0 0 0 0 0 0 0 0 0 0 0 0 0 0 0 0 0 0 127 0" result="hardAlpha"/>
<feOffset dx="4" dy="12"/>
<feGaussianBlur stdDeviation="4"/>
<feComposite in2="hardAlpha" operator="arithmetic" k2="-1" k3="1"/>
<feColorMatrix type="matrix" values="0 0 0 0 1 0 0 0 0 1 0 0 0 0 1 0 0 0 0.32 0"/>
<feBlend mode="normal" in2="effect1_innerShadow_4022_7360" result="effect2_innerShadow_4022_7360"/>
</filter>
<filter id="filter3_d_4022_7360" x="-60" y="42" width="195.115" height="195.115" filterUnits="userSpaceOnUse" color-interpolation-filters="sRGB">
<feFlood flood-opacity="0" result="BackgroundImageFix"/>
<feColorMatrix in="SourceAlpha" type="matrix" values="0 0 0 0 0 0 0 0 0 0 0 0 0 0 0 0 0 0 127 0" result="hardAlpha"/>
<feOffset dy="2"/>
<feGaussianBlur stdDeviation="12"/>
<feComposite in2="hardAlpha" operator="out"/>
<feColorMatrix type="matrix" values="0 0 0 0 0.113725 0 0 0 0 0.113725 0 0 0 0 0.121569 0 0 0 0.12 0"/>
<feBlend mode="normal" in2="BackgroundImageFix" result="effect1_dropShadow_4022_7360"/>
<feBlend mode="normal" in="SourceGraphic" in2="effect1_dropShadow_4022_7360" result="shape"/>
</filter>
<filter id="filter4_ii_4022_7360" x="-27.2869" y="70.709" width="127.693" height="133.7" filterUnits="userSpaceOnUse" color-interpolation-filters="sRGB">
<feFlood flood-opacity="0" result="BackgroundImageFix"/>
<feBlend mode="normal" in="SourceGraphic" in2="BackgroundImageFix" result="shape"/>
<feColorMatrix in="SourceAlpha" type="matrix" values="0 0 0 0 0 0 0 0 0 0 0 0 0 0 0 0 0 0 127 0" result="hardAlpha"/>
<feOffset dx="-6" dy="-10"/>
<feGaussianBlur stdDeviation="4"/>
<feComposite in2="hardAlpha" operator="arithmetic" k2="-1" k3="1"/>
<feColorMatrix type="matrix" values="0 0 0 0 0.113725 0 0 0 0 0.113725 0 0 0 0 0.121569 0 0 0 0.18 0"/>
<feBlend mode="normal" in2="shape" result="effect1_innerShadow_4022_7360"/>
<feColorMatrix in="SourceAlpha" type="matrix" values="0 0 0 0 0 0 0 0 0 0 0 0 0 0 0 0 0 0 127 0" result="hardAlpha"/>
<feOffset dx="4" dy="12"/>
<feGaussianBlur stdDeviation="4"/>
<feComposite in2="hardAlpha" operator="arithmetic" k2="-1" k3="1"/>
<feColorMatrix type="matrix" values="0 0 0 0 1 0 0 0 0 1 0 0 0 0 1 0 0 0 0.32 0"/>
<feBlend mode="normal" in2="effect1_innerShadow_4022_7360" result="effect2_innerShadow_4022_7360"/>
</filter>
<filter id="filter5_d_4022_7360" x="45.8439" y="-30.156" width="121.669" height="121.669" filterUnits="userSpaceOnUse" color-interpolation-filters="sRGB">
<feFlood flood-opacity="0" result="BackgroundImageFix"/>
<feColorMatrix in="SourceAlpha" type="matrix" values="0 0 0 0 0 0 0 0 0 0 0 0 0 0 0 0 0 0 127 0" result="hardAlpha"/>
<feOffset dy="2"/>
<feGaussianBlur stdDeviation="12"/>
<feComposite in2="hardAlpha" operator="out"/>
<feColorMatrix type="matrix" values="0 0 0 0 0.113725 0 0 0 0 0.113725 0 0 0 0 0.121569 0 0 0 0.12 0"/>
<feBlend mode="normal" in2="BackgroundImageFix" result="effect1_dropShadow_4022_7360"/>
<feBlend mode="normal" in="SourceGraphic" in2="effect1_dropShadow_4022_7360" result="shape"/>
</filter>
<filter id="filter6_ii_4022_7360" x="63.8439" y="-16.156" width="83.6691" height="89.6689" filterUnits="userSpaceOnUse" color-interpolation-filters="sRGB">
<feFlood flood-opacity="0" result="BackgroundImageFix"/>
<feBlend mode="normal" in="SourceGraphic" in2="BackgroundImageFix" result="shape"/>
<feColorMatrix in="SourceAlpha" type="matrix" values="0 0 0 0 0 0 0 0 0 0 0 0 0 0 0 0 0 0 127 0" result="hardAlpha"/>
<feOffset dx="-6" dy="-10"/>
<feGaussianBlur stdDeviation="4"/>
<feComposite in2="hardAlpha" operator="arithmetic" k2="-1" k3="1"/>
<feColorMatrix type="matrix" values="0 0 0 0 0.113725 0 0 0 0 0.113725 0 0 0 0 0.121569 0 0 0 0.18 0"/>
<feBlend mode="normal" in2="shape" result="effect1_innerShadow_4022_7360"/>
<feColorMatrix in="SourceAlpha" type="matrix" values="0 0 0 0 0 0 0 0 0 0 0 0 0 0 0 0 0 0 127 0" result="hardAlpha"/>
<feOffset dx="4" dy="12"/>
<feGaussianBlur stdDeviation="4"/>
<feComposite in2="hardAlpha" operator="arithmetic" k2="-1" k3="1"/>
<feColorMatrix type="matrix" values="0 0 0 0 1 0 0 0 0 1 0 0 0 0 1 0 0 0 0.32 0"/>
<feBlend mode="normal" in2="effect1_innerShadow_4022_7360" result="effect2_innerShadow_4022_7360"/>
</filter>
<filter id="filter7_d_4022_7360" x="119.665" y="62.6648" width="122.004" height="122.005" filterUnits="userSpaceOnUse" color-interpolation-filters="sRGB">
<feFlood flood-opacity="0" result="BackgroundImageFix"/>
<feColorMatrix in="SourceAlpha" type="matrix" values="0 0 0 0 0 0 0 0 0 0 0 0 0 0 0 0 0 0 127 0" result="hardAlpha"/>
<feOffset dy="2"/>
<feGaussianBlur stdDeviation="12"/>
<feComposite in2="hardAlpha" operator="out"/>
<feColorMatrix type="matrix" values="0 0 0 0 0.113725 0 0 0 0 0.113725 0 0 0 0 0.121569 0 0 0 0.12 0"/>
<feBlend mode="normal" in2="BackgroundImageFix" result="effect1_dropShadow_4022_7360"/>
<feBlend mode="normal" in="SourceGraphic" in2="effect1_dropShadow_4022_7360" result="shape"/>
</filter>
<filter id="filter8_ii_4022_7360" x="137.665" y="76.6648" width="84.0045" height="90.0046" filterUnits="userSpaceOnUse" color-interpolation-filters="sRGB">
<feFlood flood-opacity="0" result="BackgroundImageFix"/>
<feBlend mode="normal" in="SourceGraphic" in2="BackgroundImageFix" result="shape"/>
<feColorMatrix in="SourceAlpha" type="matrix" values="0 0 0 0 0 0 0 0 0 0 0 0 0 0 0 0 0 0 127 0" result="hardAlpha"/>
<feOffset dx="-6" dy="-10"/>
<feGaussianBlur stdDeviation="4"/>
<feComposite in2="hardAlpha" operator="arithmetic" k2="-1" k3="1"/>
<feColorMatrix type="matrix" values="0 0 0 0 0.113725 0 0 0 0 0.113725 0 0 0 0 0.121569 0 0 0 0.18 0"/>
<feBlend mode="normal" in2="shape" result="effect1_innerShadow_4022_7360"/>
<feColorMatrix in="SourceAlpha" type="matrix" values="0 0 0 0 0 0 0 0 0 0 0 0 0 0 0 0 0 0 127 0" result="hardAlpha"/>
<feOffset dx="4" dy="12"/>
<feGaussianBlur stdDeviation="4"/>
<feComposite in2="hardAlpha" operator="arithmetic" k2="-1" k3="1"/>
<feColorMatrix type="matrix" values="0 0 0 0 1 0 0 0 0 1 0 0 0 0 1 0 0 0 0.32 0"/>
<feBlend mode="normal" in2="effect1_innerShadow_4022_7360" result="effect2_innerShadow_4022_7360"/>
</filter>
<filter id="filter9_d_4022_7360" x="181" y="-40" width="141.331" height="141.331" filterUnits="userSpaceOnUse" color-interpolation-filters="sRGB">
<feFlood flood-opacity="0" result="BackgroundImageFix"/>
<feColorMatrix in="SourceAlpha" type="matrix" values="0 0 0 0 0 0 0 0 0 0 0 0 0 0 0 0 0 0 127 0" result="hardAlpha"/>
<feOffset dy="2"/>
<feGaussianBlur stdDeviation="12"/>
<feComposite in2="hardAlpha" operator="out"/>
<feColorMatrix type="matrix" values="0 0 0 0 0.113725 0 0 0 0 0.113725 0 0 0 0 0.121569 0 0 0 0.12 0"/>
<feBlend mode="normal" in2="BackgroundImageFix" result="effect1_dropShadow_4022_7360"/>
<feBlend mode="normal" in="SourceGraphic" in2="effect1_dropShadow_4022_7360" result="shape"/>
</filter>
<filter id="filter10_ii_4022_7360" x="200.657" y="-24.3425" width="100.016" height="106.016" filterUnits="userSpaceOnUse" color-interpolation-filters="sRGB">
<feFlood flood-opacity="0" result="BackgroundImageFix"/>
<feBlend mode="normal" in="SourceGraphic" in2="BackgroundImageFix" result="shape"/>
<feColorMatrix in="SourceAlpha" type="matrix" values="0 0 0 0 0 0 0 0 0 0 0 0 0 0 0 0 0 0 127 0" result="hardAlpha"/>
<feOffset dx="-6" dy="-10"/>
<feGaussianBlur stdDeviation="4"/>
<feComposite in2="hardAlpha" operator="arithmetic" k2="-1" k3="1"/>
<feColorMatrix type="matrix" values="0 0 0 0 0.113725 0 0 0 0 0.113725 0 0 0 0 0.121569 0 0 0 0.18 0"/>
<feBlend mode="normal" in2="shape" result="effect1_innerShadow_4022_7360"/>
<feColorMatrix in="SourceAlpha" type="matrix" values="0 0 0 0 0 0 0 0 0 0 0 0 0 0 0 0 0 0 127 0" result="hardAlpha"/>
<feOffset dx="4" dy="12"/>
<feGaussianBlur stdDeviation="4"/>
<feComposite in2="hardAlpha" operator="arithmetic" k2="-1" k3="1"/>
<feColorMatrix type="matrix" values="0 0 0 0 1 0 0 0 0 1 0 0 0 0 1 0 0 0 0.32 0"/>
<feBlend mode="normal" in2="effect1_innerShadow_4022_7360" result="effect2_innerShadow_4022_7360"/>
</filter>
<filter id="filter11_d_4022_7360" x="48" y="334" width="140.689" height="140.689" filterUnits="userSpaceOnUse" color-interpolation-filters="sRGB">
<feFlood flood-opacity="0" result="BackgroundImageFix"/>
<feColorMatrix in="SourceAlpha" type="matrix" values="0 0 0 0 0 0 0 0 0 0 0 0 0 0 0 0 0 0 127 0" result="hardAlpha"/>
<feOffset dy="2"/>
<feGaussianBlur stdDeviation="12"/>
<feComposite in2="hardAlpha" operator="out"/>
<feColorMatrix type="matrix" values="0 0 0 0 0.113725 0 0 0 0 0.113725 0 0 0 0 0.121569 0 0 0 0.12 0"/>
<feBlend mode="normal" in2="BackgroundImageFix" result="effect1_dropShadow_4022_7360"/>
<feBlend mode="normal" in="SourceGraphic" in2="effect1_dropShadow_4022_7360" result="shape"/>
</filter>
<filter id="filter12_ii_4022_7360" x="69.4238" y="351.431" width="95.8308" height="101.831" filterUnits="userSpaceOnUse" color-interpolation-filters="sRGB">
<feFlood flood-opacity="0" result="BackgroundImageFix"/>
<feBlend mode="normal" in="SourceGraphic" in2="BackgroundImageFix" result="shape"/>
<feColorMatrix in="SourceAlpha" type="matrix" values="0 0 0 0 0 0 0 0 0 0 0 0 0 0 0 0 0 0 127 0" result="hardAlpha"/>
<feOffset dx="-6" dy="-10"/>
<feGaussianBlur stdDeviation="4"/>
<feComposite in2="hardAlpha" operator="arithmetic" k2="-1" k3="1"/>
<feColorMatrix type="matrix" values="0 0 0 0 0.113725 0 0 0 0 0.113725 0 0 0 0 0.121569 0 0 0 0.18 0"/>
<feBlend mode="normal" in2="shape" result="effect1_innerShadow_4022_7360"/>
<feColorMatrix in="SourceAlpha" type="matrix" values="0 0 0 0 0 0 0 0 0 0 0 0 0 0 0 0 0 0 127 0" result="hardAlpha"/>
<feOffset dx="4" dy="12"/>
<feGaussianBlur stdDeviation="4"/>
<feComposite in2="hardAlpha" operator="arithmetic" k2="-1" k3="1"/>
<feColorMatrix type="matrix" values="0 0 0 0 1 0 0 0 0 1 0 0 0 0 1 0 0 0 0.32 0"/>
<feBlend mode="normal" in2="effect1_innerShadow_4022_7360" result="effect2_innerShadow_4022_7360"/>
</filter>
<filter id="filter13_d_4022_7360" x="1038" y="-38" width="160.944" height="160.944" filterUnits="userSpaceOnUse" color-interpolation-filters="sRGB">
<feFlood flood-opacity="0" result="BackgroundImageFix"/>
<feColorMatrix in="SourceAlpha" type="matrix" values="0 0 0 0 0 0 0 0 0 0 0 0 0 0 0 0 0 0 127 0" result="hardAlpha"/>
<feOffset dy="2"/>
<feGaussianBlur stdDeviation="12"/>
<feComposite in2="hardAlpha" operator="out"/>
<feColorMatrix type="matrix" values="0 0 0 0 0.113725 0 0 0 0 0.113725 0 0 0 0 0.121569 0 0 0 0.12 0"/>
<feBlend mode="normal" in2="BackgroundImageFix" result="effect1_dropShadow_4022_7360"/>
<feBlend mode="normal" in="SourceGraphic" in2="effect1_dropShadow_4022_7360" result="shape"/>
</filter>
<filter id="filter14_d_4022_7360" x="1156" y="243" width="154.578" height="154.578" filterUnits="userSpaceOnUse" color-interpolation-filters="sRGB">
<feFlood flood-opacity="0" result="BackgroundImageFix"/>
<feColorMatrix in="SourceAlpha" type="matrix" values="0 0 0 0 0 0 0 0 0 0 0 0 0 0 0 0 0 0 127 0" result="hardAlpha"/>
<feOffset dy="2"/>
<feGaussianBlur stdDeviation="12"/>
<feComposite in2="hardAlpha" operator="out"/>
<feColorMatrix type="matrix" values="0 0 0 0 0.113725 0 0 0 0 0.113725 0 0 0 0 0.121569 0 0 0 0.12 0"/>
<feBlend mode="normal" in2="BackgroundImageFix" result="effect1_dropShadow_4022_7360"/>
<feBlend mode="normal" in="SourceGraphic" in2="effect1_dropShadow_4022_7360" result="shape"/>
</filter>
<filter id="filter15_ii_4022_7360" x="1176.28" y="259.281" width="112.017" height="118.017" filterUnits="userSpaceOnUse" color-interpolation-filters="sRGB">
<feFlood flood-opacity="0" result="BackgroundImageFix"/>
<feBlend mode="normal" in="SourceGraphic" in2="BackgroundImageFix" result="shape"/>
<feColorMatrix in="SourceAlpha" type="matrix" values="0 0 0 0 0 0 0 0 0 0 0 0 0 0 0 0 0 0 127 0" result="hardAlpha"/>
<feOffset dx="-6" dy="-10"/>
<feGaussianBlur stdDeviation="4"/>
<feComposite in2="hardAlpha" operator="arithmetic" k2="-1" k3="1"/>
<feColorMatrix type="matrix" values="0 0 0 0 0.113725 0 0 0 0 0.113725 0 0 0 0 0.121569 0 0 0 0.18 0"/>
<feBlend mode="normal" in2="shape" result="effect1_innerShadow_4022_7360"/>
<feColorMatrix in="SourceAlpha" type="matrix" values="0 0 0 0 0 0 0 0 0 0 0 0 0 0 0 0 0 0 127 0" result="hardAlpha"/>
<feOffset dx="4" dy="12"/>
<feGaussianBlur stdDeviation="4"/>
<feComposite in2="hardAlpha" operator="arithmetic" k2="-1" k3="1"/>
<feColorMatrix type="matrix" values="0 0 0 0 1 0 0 0 0 1 0 0 0 0 1 0 0 0 0.32 0"/>
<feBlend mode="normal" in2="effect1_innerShadow_4022_7360" result="effect2_innerShadow_4022_7360"/>
</filter>
<filter id="filter16_d_4022_7360" x="861.167" y="-40.8333" width="122.006" height="122.006" filterUnits="userSpaceOnUse" color-interpolation-filters="sRGB">
<feFlood flood-opacity="0" result="BackgroundImageFix"/>
<feColorMatrix in="SourceAlpha" type="matrix" values="0 0 0 0 0 0 0 0 0 0 0 0 0 0 0 0 0 0 127 0" result="hardAlpha"/>
<feOffset dy="2"/>
<feGaussianBlur stdDeviation="12"/>
<feComposite in2="hardAlpha" operator="out"/>
<feColorMatrix type="matrix" values="0 0 0 0 0.113725 0 0 0 0 0.113725 0 0 0 0 0.121569 0 0 0 0.12 0"/>
<feBlend mode="normal" in2="BackgroundImageFix" result="effect1_dropShadow_4022_7360"/>
<feBlend mode="normal" in="SourceGraphic" in2="effect1_dropShadow_4022_7360" result="shape"/>
</filter>
<filter id="filter17_ii_4022_7360" x="879.167" y="-26.8333" width="84.006" height="90.0059" filterUnits="userSpaceOnUse" color-interpolation-filters="sRGB">
<feFlood flood-opacity="0" result="BackgroundImageFix"/>
<feBlend mode="normal" in="SourceGraphic" in2="BackgroundImageFix" result="shape"/>
<feColorMatrix in="SourceAlpha" type="matrix" values="0 0 0 0 0 0 0 0 0 0 0 0 0 0 0 0 0 0 127 0" result="hardAlpha"/>
<feOffset dx="-6" dy="-10"/>
<feGaussianBlur stdDeviation="4"/>
<feComposite in2="hardAlpha" operator="arithmetic" k2="-1" k3="1"/>
<feColorMatrix type="matrix" values="0 0 0 0 0.113725 0 0 0 0 0.113725 0 0 0 0 0.121569 0 0 0 0.18 0"/>
<feBlend mode="normal" in2="shape" result="effect1_innerShadow_4022_7360"/>
<feColorMatrix in="SourceAlpha" type="matrix" values="0 0 0 0 0 0 0 0 0 0 0 0 0 0 0 0 0 0 127 0" result="hardAlpha"/>
<feOffset dx="4" dy="12"/>
<feGaussianBlur stdDeviation="4"/>
<feComposite in2="hardAlpha" operator="arithmetic" k2="-1" k3="1"/>
<feColorMatrix type="matrix" values="0 0 0 0 1 0 0 0 0 1 0 0 0 0 1 0 0 0 0.32 0"/>
<feBlend mode="normal" in2="effect1_innerShadow_4022_7360" result="effect2_innerShadow_4022_7360"/>
</filter>
<filter id="filter18_d_4022_7360" x="1025.65" y="339.655" width="130.01" height="130.01" filterUnits="userSpaceOnUse" color-interpolation-filters="sRGB">
<feFlood flood-opacity="0" result="BackgroundImageFix"/>
<feColorMatrix in="SourceAlpha" type="matrix" values="0 0 0 0 0 0 0 0 0 0 0 0 0 0 0 0 0 0 127 0" result="hardAlpha"/>
<feOffset dy="2"/>
<feGaussianBlur stdDeviation="12"/>
<feComposite in2="hardAlpha" operator="out"/>
<feColorMatrix type="matrix" values="0 0 0 0 0.113725 0 0 0 0 0.113725 0 0 0 0 0.121569 0 0 0 0.12 0"/>
<feBlend mode="normal" in2="BackgroundImageFix" result="effect1_dropShadow_4022_7360"/>
<feBlend mode="normal" in="SourceGraphic" in2="effect1_dropShadow_4022_7360" result="shape"/>
</filter>
<filter id="filter19_ii_4022_7360" x="1043.65" y="353.655" width="92.0103" height="98.0103" filterUnits="userSpaceOnUse" color-interpolation-filters="sRGB">
<feFlood flood-opacity="0" result="BackgroundImageFix"/>
<feBlend mode="normal" in="SourceGraphic" in2="BackgroundImageFix" result="shape"/>
<feColorMatrix in="SourceAlpha" type="matrix" values="0 0 0 0 0 0 0 0 0 0 0 0 0 0 0 0 0 0 127 0" result="hardAlpha"/>
<feOffset dx="-6" dy="-10"/>
<feGaussianBlur stdDeviation="4"/>
<feComposite in2="hardAlpha" operator="arithmetic" k2="-1" k3="1"/>
<feColorMatrix type="matrix" values="0 0 0 0 0.113725 0 0 0 0 0.113725 0 0 0 0 0.121569 0 0 0 0.18 0"/>
<feBlend mode="normal" in2="shape" result="effect1_innerShadow_4022_7360"/>
<feColorMatrix in="SourceAlpha" type="matrix" values="0 0 0 0 0 0 0 0 0 0 0 0 0 0 0 0 0 0 127 0" result="hardAlpha"/>
<feOffset dx="4" dy="12"/>
<feGaussianBlur stdDeviation="4"/>
<feComposite in2="hardAlpha" operator="arithmetic" k2="-1" k3="1"/>
<feColorMatrix type="matrix" values="0 0 0 0 1 0 0 0 0 1 0 0 0 0 1 0 0 0 0.32 0"/>
<feBlend mode="normal" in2="effect1_innerShadow_4022_7360" result="effect2_innerShadow_4022_7360"/>
</filter>
<filter id="filter20_d_4022_7360" x="1164.96" y="70.9585" width="138.007" height="138.007" filterUnits="userSpaceOnUse" color-interpolation-filters="sRGB">
<feFlood flood-opacity="0" result="BackgroundImageFix"/>
<feColorMatrix in="SourceAlpha" type="matrix" values="0 0 0 0 0 0 0 0 0 0 0 0 0 0 0 0 0 0 127 0" result="hardAlpha"/>
<feOffset dy="2"/>
<feGaussianBlur stdDeviation="12"/>
<feComposite in2="hardAlpha" operator="out"/>
<feColorMatrix type="matrix" values="0 0 0 0 0.113725 0 0 0 0 0.113725 0 0 0 0 0.121569 0 0 0 0.12 0"/>
<feBlend mode="normal" in2="BackgroundImageFix" result="effect1_dropShadow_4022_7360"/>
<feBlend mode="normal" in="SourceGraphic" in2="effect1_dropShadow_4022_7360" result="shape"/>
</filter>
<filter id="filter21_ii_4022_7360" x="1182.96" y="84.9585" width="100.007" height="106.007" filterUnits="userSpaceOnUse" color-interpolation-filters="sRGB">
<feFlood flood-opacity="0" result="BackgroundImageFix"/>
<feBlend mode="normal" in="SourceGraphic" in2="BackgroundImageFix" result="shape"/>
<feColorMatrix in="SourceAlpha" type="matrix" values="0 0 0 0 0 0 0 0 0 0 0 0 0 0 0 0 0 0 127 0" result="hardAlpha"/>
<feOffset dx="-6" dy="-10"/>
<feGaussianBlur stdDeviation="4"/>
<feComposite in2="hardAlpha" operator="arithmetic" k2="-1" k3="1"/>
<feColorMatrix type="matrix" values="0 0 0 0 0.113725 0 0 0 0 0.113725 0 0 0 0 0.121569 0 0 0 0.18 0"/>
<feBlend mode="normal" in2="shape" result="effect1_innerShadow_4022_7360"/>
<feColorMatrix in="SourceAlpha" type="matrix" values="0 0 0 0 0 0 0 0 0 0 0 0 0 0 0 0 0 0 127 0" result="hardAlpha"/>
<feOffset dx="4" dy="12"/>
<feGaussianBlur stdDeviation="4"/>
<feComposite in2="hardAlpha" operator="arithmetic" k2="-1" k3="1"/>
<feColorMatrix type="matrix" values="0 0 0 0 1 0 0 0 0 1 0 0 0 0 1 0 0 0 0.32 0"/>
<feBlend mode="normal" in2="effect1_innerShadow_4022_7360" result="effect2_innerShadow_4022_7360"/>
</filter>
<filter id="filter22_d_4022_7360" x="932.893" y="55.8928" width="122.002" height="122.002" filterUnits="userSpaceOnUse" color-interpolation-filters="sRGB">
<feFlood flood-opacity="0" result="BackgroundImageFix"/>
<feColorMatrix in="SourceAlpha" type="matrix" values="0 0 0 0 0 0 0 0 0 0 0 0 0 0 0 0 0 0 127 0" result="hardAlpha"/>
<feOffset dy="2"/>
<feGaussianBlur stdDeviation="12"/>
<feComposite in2="hardAlpha" operator="out"/>
<feColorMatrix type="matrix" values="0 0 0 0 0.113725 0 0 0 0 0.113725 0 0 0 0 0.121569 0 0 0 0.12 0"/>
<feBlend mode="normal" in2="BackgroundImageFix" result="effect1_dropShadow_4022_7360"/>
<feBlend mode="normal" in="SourceGraphic" in2="effect1_dropShadow_4022_7360" result="shape"/>
</filter>
<filter id="filter23_ii_4022_7360" x="950.893" y="69.8928" width="84.0023" height="90.0024" filterUnits="userSpaceOnUse" color-interpolation-filters="sRGB">
<feFlood flood-opacity="0" result="BackgroundImageFix"/>
<feBlend mode="normal" in="SourceGraphic" in2="BackgroundImageFix" result="shape"/>
<feColorMatrix in="SourceAlpha" type="matrix" values="0 0 0 0 0 0 0 0 0 0 0 0 0 0 0 0 0 0 127 0" result="hardAlpha"/>
<feOffset dx="-6" dy="-10"/>
<feGaussianBlur stdDeviation="4"/>
<feComposite in2="hardAlpha" operator="arithmetic" k2="-1" k3="1"/>
<feColorMatrix type="matrix" values="0 0 0 0 0.113725 0 0 0 0 0.113725 0 0 0 0 0.121569 0 0 0 0.18 0"/>
<feBlend mode="normal" in2="shape" result="effect1_innerShadow_4022_7360"/>
<feColorMatrix in="SourceAlpha" type="matrix" values="0 0 0 0 0 0 0 0 0 0 0 0 0 0 0 0 0 0 127 0" result="hardAlpha"/>
<feOffset dx="4" dy="12"/>
<feGaussianBlur stdDeviation="4"/>
<feComposite in2="hardAlpha" operator="arithmetic" k2="-1" k3="1"/>
<feColorMatrix type="matrix" values="0 0 0 0 1 0 0 0 0 1 0 0 0 0 1 0 0 0 0.32 0"/>
<feBlend mode="normal" in2="effect1_innerShadow_4022_7360" result="effect2_innerShadow_4022_7360"/>
</filter>
<filter id="filter24_dii_4022_7360" x="1006.43" y="148.429" width="165.022" height="165.022" filterUnits="userSpaceOnUse" color-interpolation-filters="sRGB">
<feFlood flood-opacity="0" result="BackgroundImageFix"/>
<feColorMatrix in="SourceAlpha" type="matrix" values="0 0 0 0 0 0 0 0 0 0 0 0 0 0 0 0 0 0 127 0" result="hardAlpha"/>
<feOffset dy="2"/>
<feGaussianBlur stdDeviation="10"/>
<feComposite in2="hardAlpha" operator="out"/>
<feColorMatrix type="matrix" values="0 0 0 0 0.113725 0 0 0 0 0.113725 0 0 0 0 0.121569 0 0 0 0.08 0"/>
<feBlend mode="normal" in2="BackgroundImageFix" result="effect1_dropShadow_4022_7360"/>
<feBlend mode="normal" in="SourceGraphic" in2="effect1_dropShadow_4022_7360" result="shape"/>
<feColorMatrix in="SourceAlpha" type="matrix" values="0 0 0 0 0 0 0 0 0 0 0 0 0 0 0 0 0 0 127 0" result="hardAlpha"/>
<feOffset dx="-6" dy="-10"/>
<feGaussianBlur stdDeviation="4"/>
<feComposite in2="hardAlpha" operator="arithmetic" k2="-1" k3="1"/>
<feColorMatrix type="matrix" values="0 0 0 0 0.113725 0 0 0 0 0.113725 0 0 0 0 0.121569 0 0 0 0.18 0"/>
<feBlend mode="normal" in2="shape" result="effect2_innerShadow_4022_7360"/>
<feColorMatrix in="SourceAlpha" type="matrix" values="0 0 0 0 0 0 0 0 0 0 0 0 0 0 0 0 0 0 127 0" result="hardAlpha"/>
<feOffset dx="4" dy="12"/>
<feGaussianBlur stdDeviation="4"/>
<feComposite in2="hardAlpha" operator="arithmetic" k2="-1" k3="1"/>
<feColorMatrix type="matrix" values="0 0 0 0 1 0 0 0 0 1 0 0 0 0 1 0 0 0 0.32 0"/>
<feBlend mode="normal" in2="effect2_innerShadow_4022_7360" result="effect3_innerShadow_4022_7360"/>
</filter>
<filter id="filter25_d_4022_7360" x="-44" y="245" width="142.306" height="142.305" filterUnits="userSpaceOnUse" color-interpolation-filters="sRGB">
<feFlood flood-opacity="0" result="BackgroundImageFix"/>
<feColorMatrix in="SourceAlpha" type="matrix" values="0 0 0 0 0 0 0 0 0 0 0 0 0 0 0 0 0 0 127 0" result="hardAlpha"/>
<feOffset dy="2"/>
<feGaussianBlur stdDeviation="12"/>
<feComposite in2="hardAlpha" operator="out"/>
<feColorMatrix type="matrix" values="0 0 0 0 0.113725 0 0 0 0 0.113725 0 0 0 0 0.121569 0 0 0 0.12 0"/>
<feBlend mode="normal" in2="BackgroundImageFix" result="effect1_dropShadow_4022_7360"/>
<feBlend mode="normal" in="SourceGraphic" in2="effect1_dropShadow_4022_7360" result="shape"/>
</filter>
<filter id="filter26_ii_4022_7360" x="-25.6018" y="259.398" width="103.509" height="109.509" filterUnits="userSpaceOnUse" color-interpolation-filters="sRGB">
<feFlood flood-opacity="0" result="BackgroundImageFix"/>
<feBlend mode="normal" in="SourceGraphic" in2="BackgroundImageFix" result="shape"/>
<feColorMatrix in="SourceAlpha" type="matrix" values="0 0 0 0 0 0 0 0 0 0 0 0 0 0 0 0 0 0 127 0" result="hardAlpha"/>
<feOffset dx="-6" dy="-10"/>
<feGaussianBlur stdDeviation="4"/>
<feComposite in2="hardAlpha" operator="arithmetic" k2="-1" k3="1"/>
<feColorMatrix type="matrix" values="0 0 0 0 0.113725 0 0 0 0 0.113725 0 0 0 0 0.121569 0 0 0 0.18 0"/>
<feBlend mode="normal" in2="shape" result="effect1_innerShadow_4022_7360"/>
<feColorMatrix in="SourceAlpha" type="matrix" values="0 0 0 0 0 0 0 0 0 0 0 0 0 0 0 0 0 0 127 0" result="hardAlpha"/>
<feOffset dx="4" dy="12"/>
<feGaussianBlur stdDeviation="4"/>
<feComposite in2="hardAlpha" operator="arithmetic" k2="-1" k3="1"/>
<feColorMatrix type="matrix" values="0 0 0 0 1 0 0 0 0 1 0 0 0 0 1 0 0 0 0.32 0"/>
<feBlend mode="normal" in2="effect1_innerShadow_4022_7360" result="effect2_innerShadow_4022_7360"/>
</filter>
<linearGradient id="paint0_linear_4022_7360" x1="1205.27" y1="124.868" x2="1220.39" y2="126.457" gradientUnits="userSpaceOnUse">
<stop stop-color="#41E700" stop-opacity="0"/>
<stop offset="0.736" stop-color="#3ACD00"/>
<stop offset="0.781" stop-color="#36BE00"/>
<stop offset="0.926" stop-color="#299100"/>
<stop offset="1" stop-color="#248000"/>
</linearGradient>
<linearGradient id="paint1_linear_4022_7360" x1="1204.78" y1="129.525" x2="1219.9" y2="131.114" gradientUnits="userSpaceOnUse">
<stop stop-color="#41E700" stop-opacity="0"/>
<stop offset="0.736" stop-color="#3ACD00"/>
<stop offset="0.781" stop-color="#36BE00"/>
<stop offset="0.926" stop-color="#299100"/>
<stop offset="1" stop-color="#248000"/>
</linearGradient>
<linearGradient id="paint2_linear_4022_7360" x1="1204.25" y1="134.606" x2="1219.37" y2="136.195" gradientUnits="userSpaceOnUse">
<stop stop-color="#41E700" stop-opacity="0"/>
<stop offset="0.736" stop-color="#3ACD00"/>
<stop offset="0.781" stop-color="#36BE00"/>
<stop offset="0.926" stop-color="#299100"/>
<stop offset="1" stop-color="#248000"/>
</linearGradient>
</defs>
</svg>
