<svg width="1262" height="360" viewBox="0 0 1262 360" fill="none" xmlns="http://www.w3.org/2000/svg">
<path d="M65.2721 -182.058C-85.0982 -143.193 -267.866 -127.953 -263.337 52.9975C-253.32 453.235 125.035 412.37 96.3271 293.112C42.9713 71.4645 120.268 171.02 268.442 -1.30899C416.616 -173.638 253.235 -230.638 65.2721 -182.058Z" stroke="white"/>
<path d="M65.8945 -170.202C-81.7525 -134.514 -260.717 -122.428 -259.077 54.5963C-255.448 446.147 115.177 412.017 88.9409 294.95C40.1796 77.3766 114.234 175.925 261.79 9.68567C409.346 -156.554 250.453 -214.812 65.8945 -170.202Z" stroke="white"/>
<path d="M66.3687 -158.587C-78.493 -125.98 -253.601 -116.923 -254.725 56.1285C-257.209 438.894 105.57 411.244 81.7299 296.416C37.4213 83.0045 108.285 180.468 255.069 20.2561C401.853 -139.956 247.446 -199.347 66.3687 -158.587Z" stroke="white"/>
<path d="M66.6999 -147.217C-75.3171 -117.593 -246.519 -111.442 -250.281 57.5953C-258.601 431.482 96.2236 410.056 74.7016 297.514C34.702 88.3488 102.428 184.653 248.287 30.4009C394.146 -123.851 244.221 -184.247 66.6999 -147.217Z" stroke="white"/>
<path d="M66.8909 -136.092C-72.2241 -109.354 -239.473 -105.983 -245.746 59.0011C-259.622 423.922 87.1422 408.463 67.8606 298.25C32.025 93.4132 96.6683 188.483 241.452 40.1218C386.235 -108.239 240.785 -169.515 66.8909 -136.092Z" stroke="white"/>
<path d="M66.9495 -125.216C-69.2086 -101.265 -232.46 -100.547 -241.119 60.347C-260.27 416.222 78.3367 406.47 61.2168 298.628C29.3986 98.1982 91.0149 191.961 234.575 49.4176C378.134 -93.1259 237.147 -155.156 66.9495 -125.216Z" stroke="white"/>
<path d="M66.8818 -114.591C-66.267 -93.3263 -225.48 -95.1361 -236.396 61.6354C-260.542 408.391 69.8157 404.086 54.7777 298.655C26.829 102.706 85.4759 195.091 227.665 58.2885C369.854 -78.5137 233.318 -141.172 66.8818 -114.591Z" stroke="white"/>
<path d="M66.694 -104.221C-63.3954 -85.5415 -218.532 -89.7508 -231.578 62.8676C-260.435 400.437 61.5874 401.316 48.5511 298.334C24.3225 106.937 80.0592 197.874 220.734 66.7339C361.408 -64.4065 229.306 -127.57 66.694 -104.221Z" stroke="white"/>
<path d="M66.3921 -94.1055C-60.5904 -77.9104 -211.615 -84.3912 -226.664 64.0468C-259.949 392.37 53.6598 398.169 42.5441 297.672C21.885 110.895 74.7721 200.316 213.789 74.7553C352.807 -50.8058 225.12 -114.349 66.3921 -94.1055Z" stroke="white"/>
<path d="M65.9822 -84.2469C-57.8482 -70.4331 -204.729 -79.057 -221.651 65.1765C-259.081 384.2 46.0408 394.654 36.7641 296.677C19.5229 114.583 69.6222 202.422 206.843 82.3543C344.063 -37.7131 220.77 -101.514 65.9822 -84.2469Z" stroke="white"/>
<path d="M65.4707 -74.6482C-55.1649 -63.1122 -197.873 -73.7503 -216.54 66.2575C-257.829 375.934 38.7384 390.778 31.2184 295.353C17.2422 118.002 64.6172 204.193 199.903 89.5306C335.189 -25.1318 216.265 -89.0682 65.4707 -74.6482Z" stroke="white"/>
<path d="M64.8634 -65.3096C-52.5372 -55.9472 -191.047 -68.4702 -211.33 67.2937C-256.194 367.584 31.7598 386.549 25.9138 293.707C15.0487 121.156 59.764 205.636 192.98 96.2867C326.195 -13.0622 211.614 -77.0125 64.8634 -65.3096Z" stroke="white"/>
<path d="M64.1688 -56.2351C-49.9592 -48.9416 -184.247 -63.2197 -206.017 68.285C-254.17 359.154 25.1145 381.974 20.8592 291.743C12.9504 124.045 55.072 206.752 186.085 102.622C317.097 -1.5085 206.829 -65.352 64.1688 -56.2351Z" stroke="white"/>
<path d="M63.3892 -47.4239C-47.4309 -42.0936 -177.477 -57.9972 -200.606 69.2362C-251.762 350.658 18.8059 377.064 16.0575 289.471C10.9494 126.674 50.5446 207.547 179.224 108.539C307.903 9.53054 201.914 -54.0867 63.3892 -47.4239Z" stroke="white"/>
<path d="M62.5328 -38.8782C-44.9468 -35.4051 -170.735 -52.804 -195.092 70.1489C-248.967 342.103 12.8429 371.827 11.5172 286.895C9.05318 129.045 46.1906 208.027 172.409 114.04C298.627 20.0529 196.882 -43.2196 62.5328 -38.8782Z" stroke="white"/>
<path d="M61.6059 -30.6002C-42.503 -28.8776 -164.018 -47.6419 -189.476 71.0244C-245.785 333.497 7.23233 366.269 7.2447 284.021C7.26769 131.16 42.017 208.194 165.649 119.125C289.28 30.0568 191.742 -32.7534 61.6059 -30.6002Z" stroke="white"/>
<path d="M60.6148 -22.5895C-40.0958 -22.5103 -157.328 -42.5097 -183.757 71.8668C-242.214 324.851 1.9808 360.402 3.24637 280.858C5.59849 133.023 38.0306 208.054 158.953 123.799C279.875 39.5432 186.503 -22.6885 60.6148 -22.5895Z" stroke="white"/>
<path d="M59.5658 -14.8476C-37.7213 -16.3043 -150.663 -37.4086 -177.934 72.6778C-238.255 316.173 -2.90518 354.233 -0.471632 277.413C4.05125 134.639 34.2382 207.613 152.331 128.062C270.425 48.5112 181.175 -13.0267 59.5658 -14.8476Z" stroke="white"/>
<path d="M58.4654 -7.37474C-35.3757 -10.2595 -144.021 -32.3386 -172.007 73.4606C-233.908 307.473 -7.41932 347.773 -3.90327 273.692C2.63145 136.009 30.6464 206.875 145.793 131.918C260.94 56.9613 175.767 -3.76885 58.4654 -7.37474Z" stroke="white"/>
<path d="M57.3199 -0.172149C-33.0553 -4.37663 -137.404 -27.3007 -165.975 74.2171C-229.172 298.76 -11.5556 341.03 -7.04275 269.702C1.34457 137.137 27.2617 205.845 139.348 135.369C251.434 64.8933 170.289 5.08346 57.3199 -0.172149Z" stroke="white"/>
<path d="M56.1355 6.75966C-30.7562 1.34389 -130.808 -22.2954 -159.839 74.9498C-224.049 290.042 -15.3081 334.013 -9.88431 265.451C0.195983 138.027 24.0904 204.53 133.004 138.419C241.918 72.3075 164.75 13.5294 56.1355 6.75966Z" stroke="white"/>
<path d="M54.9189 13.4203C-28.4746 6.90191 -124.235 -17.3231 -153.597 75.6612C-218.54 281.329 -18.6712 326.732 -12.4225 260.947C-0.809023 138.682 21.139 202.934 126.771 141.069C232.404 79.2048 159.161 21.5683 54.9189 13.4203Z" stroke="white"/>
<path d="M53.6771 19.8095C-26.2057 12.2973 -117.682 -12.3842 -147.248 76.3537C-212.643 272.629 -21.6384 319.196 -14.6509 256.196C-1.66425 139.107 18.4144 201.062 120.66 143.324C222.906 85.5861 153.531 29.1997 53.6771 19.8095Z" stroke="white"/>
<path d="M52.4158 25.926C-23.9466 17.529 -111.149 -7.48031 -140.793 77.0289C-206.361 263.951 -24.2054 311.414 -16.5652 251.205C-2.36552 139.303 15.9218 198.92 114.678 145.186C213.434 91.4516 147.869 36.4222 52.4158 25.926Z" stroke="white"/>
<path d="M51.1402 31.7715C-21.6945 22.5987 -104.636 -2.61023 -134.233 77.6908C-199.696 255.305 -26.3682 303.398 -18.1615 245.984C-2.9088 139.277 13.6661 196.516 108.833 146.66C204 96.8043 142.184 43.2375 51.1402 31.7715Z" stroke="white"/>
<path d="M49.8578 37.3454C-19.4447 27.5057 -98.1421 2.22511 -127.566 78.3413C-192.648 246.699 -28.121 295.156 -19.4337 240.539C-3.28812 139.032 11.6541 193.853 103.135 147.749C194.616 101.645 136.486 49.645 49.8578 37.3454Z" stroke="white"/>
<path d="M48.5748 42.6486C-17.1934 32.251 -91.6657 7.02583 -120.793 78.9835C-185.219 238.143 -29.459 286.699 -20.3773 234.88C-3.49863 138.572 9.89129 190.94 97.5931 148.459C185.295 105.977 130.785 55.6456 48.5748 42.6486Z" stroke="white"/>
<path d="M47.2977 47.68C-14.9366 36.8333 -85.2062 11.7901 -113.914 79.6185C-177.41 229.645 -30.3778 278.035 -20.9876 229.012C-3.53556 137.901 8.38329 187.78 92.2154 148.791C176.048 109.801 125.091 61.2383 47.2977 47.68Z" stroke="white"/>
<path d="M46.0327 52.442C-12.6707 41.2548 -78.7627 16.5195 -106.928 80.2506C-169.224 221.214 -30.8734 269.177 -21.2604 222.947C-3.3942 137.024 7.13549 184.383 87.0108 148.752C166.886 113.12 119.412 66.4259 46.0327 52.442Z" stroke="white"/>
<path d="M44.7882 56.9353C-10.3899 45.5161 -72.3324 21.2138 -99.8332 80.8823C-160.661 212.86 -30.9396 260.135 -21.1893 216.691C-3.06801 135.947 6.15508 180.754 81.9897 148.346C157.824 115.939 113.761 71.2093 44.7882 56.9353Z" stroke="white"/>
<path d="M43.5646 61.1578C-8.09628 49.6148 -65.9202 25.8696 -92.6364 81.5133C-151.729 204.589 -30.5785 250.917 -20.7763 210.251C-2.55836 134.671 5.44132 176.897 77.1546 147.577C148.868 118.256 108.141 75.5867 43.5646 61.1578Z" stroke="white"/>
<path d="M42.376 65.1124C-5.7783 53.5532 -59.5176 30.4887 -85.3294 82.148C-142.421 196.411 -29.7788 241.533 -20.0096 203.636C-1.85302 133.202 5.00697 172.821 72.5216 146.449C140.036 120.077 102.569 79.5613 42.376 65.1124Z" stroke="white"/>
<path d="M41.2218 68.8005C-3.43906 57.3328 -53.1304 35.0713 -77.9195 82.7894C-132.749 188.335 -28.5441 231.996 -18.8925 196.856C-0.954583 131.546 4.85001 168.533 68.0921 144.969C131.334 121.405 97.0479 83.1352 41.2218 68.8005Z" stroke="white"/>
<path d="M40.1122 72.2229C-1.07091 60.9536 -46.7539 39.6165 -70.4028 83.4394C-122.711 180.369 -26.8671 222.316 -17.4175 189.919C0.145111 129.707 4.97904 164.039 63.8779 143.142C122.777 122.245 91.591 86.3096 40.1122 72.2229Z" stroke="white"/>
<path d="M39.0523 75.3814C1.32888 64.417 -40.3882 44.1248 -62.7808 84.1011C-112.31 172.523 -24.7461 212.503 -15.5823 182.833C1.44916 127.69 5.39765 159.347 59.8862 140.974C114.375 122.6 86.2066 89.0868 39.0523 75.3814Z" stroke="white"/>
<path d="M38.0484 78.2769C3.76397 67.7234 -34.0323 48.5954 -55.0537 84.7764C-101.55 164.804 -22.1783 202.567 -13.3837 175.607C2.96154 125.5 6.1102 154.463 56.1246 138.469C106.139 122.475 80.904 91.4687 38.0484 78.2769Z" stroke="white"/>
<path d="M37.1067 80.91C6.23804 70.8729 -27.6854 53.027 -47.2221 85.4668C-90.4345 157.219 -19.1612 192.519 -10.8188 168.248C4.68611 123.141 7.12089 149.394 52.601 135.633C98.0811 121.871 75.6924 93.4563 37.1067 80.91Z" stroke="white"/>
<path d="M36.2331 83.2844C8.75475 73.8685 -21.3465 57.4216 -39.2863 86.1767C-78.9666 149.779 -15.6927 182.37 -7.88477 160.768C6.62669 120.621 8.43385 144.148 49.3228 132.473C90.2118 120.797 70.5811 95.0543 36.2331 83.2844Z" stroke="white"/>
<path d="M35.4358 85.4009C11.3196 76.7102 -15.0128 61.7779 -31.245 86.9076C-67.1482 142.491 -11.7688 172.131 -4.57716 153.174C8.78884 117.942 10.055 138.732 46.2996 128.994C82.5442 119.256 65.581 96.2643 35.4358 85.4009Z" stroke="white"/>
<path d="M34.7168 87.2625C13.9324 79.4003 -8.68735 66.0968 -23.1026 87.6629C-54.9871 135.364 -7.39157 161.813 -0.897427 145.476C11.1722 115.113 11.9841 133.154 43.5346 125.204C75.0851 117.254 60.6974 97.0902 34.7168 87.2625Z" stroke="white"/>
<path d="M34.0842 88.8682C16.5986 81.9371 -2.36721 70.3752 -14.8578 88.442C-42.4853 128.403 -2.55752 151.424 3.1586 137.68C13.7823 112.134 14.2268 127.418 41.0371 121.105C67.8474 114.793 55.9412 97.5321 34.0842 88.8682Z" stroke="white"/>
<path d="M1121.04 613.761C1275.82 600.995 1458.52 617.013 1484.79 437.921C1542.88 41.7954 1163.08 17.8176 1171.12 140.219C1186.07 367.708 1126.8 256.472 951.512 401.137C776.226 545.802 927.555 629.717 1121.04 613.761Z" stroke="white"/>
<path d="M1122.44 601.972C1274 591.874 1452.42 610.354 1480.86 435.622C1543.78 49.1415 1172.74 19.8398 1178.71 139.662C1189.82 362.356 1133.57 252.663 959.933 391.432C786.29 530.2 932.983 614.594 1122.44 601.972Z" stroke="white"/>
<path d="M1123.94 590.445C1272.24 582.91 1446.34 603.72 1476.83 433.373C1544.28 56.5885 1182.07 22.2328 1186.07 139.441C1193.49 357.278 1140.21 249.196 968.352 382.156C796.494 515.116 938.573 599.864 1123.94 590.445Z" stroke="white"/>
<path d="M1125.55 579.185C1270.53 574.107 1440.29 597.117 1472.7 431.173C1544.39 64.13 1191.08 24.9913 1193.18 139.554C1197.08 352.473 1146.69 246.068 976.76 373.311C806.826 500.554 944.317 585.532 1125.55 579.185Z" stroke="white"/>
<path d="M1127.25 568.188C1268.89 565.462 1434.28 590.54 1468.48 429.018C1544.12 71.7531 1199.76 28.103 1200.05 139.99C1200.58 347.937 1153.02 243.271 985.147 364.891C817.273 486.512 950.206 571.597 1127.25 568.188Z" stroke="white"/>
<path d="M1129.04 557.46C1267.28 556.978 1428.29 583.993 1464.14 426.905C1543.45 79.4509 1208.1 31.5617 1206.66 140.745C1203.98 343.667 1159.18 240.803 993.501 356.898C827.821 472.993 956.227 558.064 1129.04 557.46Z" stroke="white"/>
<path d="M1130.91 547.002C1265.74 548.656 1422.33 577.476 1459.71 424.835C1542.39 87.2152 1216.1 35.3596 1213.01 141.813C1207.28 339.662 1165.17 238.66 1001.82 349.33C838.464 460 962.377 544.935 1130.91 547.002Z" stroke="white"/>
<path d="M1132.85 536.813C1264.23 540.496 1416.39 570.988 1455.17 422.802C1540.93 95.0349 1223.73 39.4861 1219.09 143.186C1210.47 335.917 1170.98 236.836 1010.08 342.184C849.181 447.532 968.639 532.21 1132.85 536.813Z" stroke="white"/>
<path d="M1134.87 526.896C1262.76 532.499 1410.49 564.531 1450.52 420.804C1539.08 102.902 1231.01 43.9331 1224.9 144.858C1213.54 332.43 1176.61 235.327 1018.29 335.458C859.966 435.589 975.008 519.892 1134.87 526.896Z" stroke="white"/>
<path d="M1136.95 517.25C1261.33 524.665 1404.61 558.105 1445.78 418.84C1536.84 110.806 1237.92 48.6908 1230.43 146.82C1216.5 329.197 1182.04 234.127 1026.42 329.149C870.808 424.171 981.476 507.982 1136.95 517.25Z" stroke="white"/>
<path d="M1139.08 507.877C1259.93 516.993 1398.75 551.71 1440.93 416.906C1534.2 118.738 1244.46 53.7499 1235.67 149.066C1219.32 326.214 1187.27 233.23 1034.48 323.254C881.69 413.278 988.03 496.481 1139.08 507.877Z" stroke="white"/>
<path d="M1141.27 498.777C1258.55 509.487 1392.92 545.348 1435.97 415C1531.17 126.69 1250.62 59.1025 1240.61 151.589C1222.02 323.479 1192.3 232.633 1042.45 317.772C892.601 402.912 994.659 485.39 1141.27 498.777Z" stroke="white"/>
<path d="M1143.49 489.953C1257.2 502.146 1387.11 539.02 1430.9 413.122C1527.75 134.654 1256.39 64.7399 1245.26 154.383C1224.58 320.989 1197.11 232.331 1050.32 312.701C903.53 393.071 1001.36 474.713 1143.49 489.953Z" stroke="white"/>
<path d="M1145.76 481.402C1255.87 494.967 1381.33 532.723 1425.73 411.265C1523.93 142.618 1261.78 70.6492 1249.61 157.438C1227 318.738 1201.71 232.315 1058.09 308.034C914.466 383.754 1008.11 464.445 1145.76 481.402Z" stroke="white"/>
<path d="M1148.05 473.126C1254.56 487.955 1375.57 526.461 1420.45 409.43C1519.72 150.574 1266.76 76.8238 1253.65 160.748C1229.27 316.724 1206.09 232.582 1065.74 303.771C925.395 374.96 1014.92 454.591 1148.05 473.126Z" stroke="white"/>
<path d="M1150.37 465.125C1253.26 481.107 1369.82 520.233 1415.06 407.613C1515.12 158.514 1271.35 83.2529 1257.37 164.304C1231.39 314.942 1210.22 233.126 1073.26 299.907C936.303 366.688 1021.76 445.149 1150.37 465.125Z" stroke="white"/>
<path d="M1152.71 457.399C1251.97 474.423 1364.1 514.039 1409.57 405.812C1510.14 166.428 1275.52 89.9268 1260.77 168.1C1233.35 313.389 1214.13 233.94 1080.65 296.438C947.181 358.936 1028.63 436.12 1152.71 457.399Z" stroke="white"/>
<path d="M1155.06 449.948C1250.68 467.904 1358.4 507.88 1403.97 404.024C1504.76 174.308 1279.29 96.8354 1263.85 172.127C1235.15 312.06 1217.79 235.019 1087.91 293.361C958.019 351.703 1035.52 427.503 1155.06 449.948Z" stroke="white"/>
<path d="M1157.41 442.77C1249.4 461.548 1352.72 501.756 1398.26 402.246C1499 182.143 1282.65 103.968 1266.6 176.377C1236.78 310.95 1221.21 236.356 1095 290.671C968.802 344.986 1042.43 419.298 1157.41 442.77Z" stroke="white"/>
<path d="M1159.76 435.868C1248.11 455.358 1347.05 495.669 1392.45 400.477C1492.85 189.927 1285.58 111.317 1269.02 180.842C1238.24 310.058 1224.37 237.946 1101.94 288.366C979.516 338.785 1049.33 411.505 1159.76 435.868Z" stroke="white"/>
<path d="M1162.1 429.237C1246.81 449.33 1341.4 489.615 1386.52 398.712C1486.32 197.648 1288.08 118.869 1271.09 185.513C1239.52 309.375 1227.27 239.781 1108.71 286.437C990.151 333.094 1056.22 404.122 1162.1 429.237Z" stroke="white"/>
<path d="M1164.44 422.88C1245.51 443.465 1335.77 483.6 1380.49 396.952C1479.42 205.299 1290.16 126.616 1272.83 190.384C1240.62 308.901 1229.91 241.856 1115.3 284.884C1000.7 327.912 1063.09 397.149 1164.44 422.88Z" stroke="white"/>
<path d="M1166.74 416.796C1244.19 437.764 1330.15 477.62 1374.35 395.192C1472.13 212.872 1291.8 134.546 1274.22 195.445C1241.54 308.628 1232.27 244.163 1121.71 283.7C1011.14 323.237 1069.93 390.586 1166.74 416.796Z" stroke="white"/>
<path d="M1169.03 410.982C1242.85 432.224 1324.54 471.678 1368.11 393.43C1464.46 220.357 1293.01 142.651 1275.26 200.688C1242.27 308.554 1234.37 246.697 1127.92 282.881C1021.47 319.065 1076.74 384.429 1169.03 410.982Z" stroke="white"/>
<path d="M1171.27 405.437C1241.49 426.844 1318.95 465.772 1361.75 391.663C1456.43 227.744 1293.78 150.917 1275.95 206.104C1242.79 308.671 1236.18 249.449 1133.93 282.42C1031.68 315.391 1083.5 378.677 1171.27 405.437Z" stroke="white"/>
<path d="M1173.49 400.161C1240.11 421.627 1313.37 459.904 1355.3 389.889C1448.02 235.028 1294.11 159.337 1276.28 211.685C1243.13 308.977 1237.71 252.414 1139.73 282.314C1041.75 312.214 1090.21 373.33 1173.49 400.161Z" stroke="white"/>
<path d="M1175.65 395.153C1238.7 416.568 1307.81 454.073 1348.73 388.106C1439.25 242.198 1293.99 167.898 1276.24 217.423C1243.26 309.466 1238.95 255.584 1145.31 282.556C1051.67 309.528 1096.84 368.385 1175.65 395.153Z" stroke="white"/>
<path d="M1177.76 390.413C1237.25 411.67 1302.25 448.282 1342.06 386.313C1430.11 249.248 1293.43 176.593 1275.85 223.31C1243.18 310.134 1239.9 258.955 1150.67 283.143C1061.43 307.331 1103.4 363.841 1177.76 390.413Z" stroke="white"/>
<path d="M1179.82 385.934C1235.77 406.927 1296.7 442.526 1335.28 384.504C1420.61 256.166 1292.41 185.406 1275.09 229.333C1242.89 310.973 1240.56 262.514 1155.79 284.065C1071.02 305.615 1109.88 359.693 1179.82 385.934Z" stroke="white"/>
<path d="M1181.81 381.718C1234.25 402.341 1291.16 436.809 1328.4 382.677C1410.75 262.945 1290.94 194.328 1273.96 235.486C1242.39 311.98 1240.91 266.258 1160.67 285.317C1080.44 304.377 1116.26 355.939 1181.81 381.718Z" stroke="white"/>
<path d="M1183.73 377.764C1232.68 397.912 1285.63 431.131 1321.41 380.832C1400.54 269.579 1289.02 203.351 1272.45 241.762C1241.67 313.151 1240.95 270.179 1165.3 286.896C1089.65 303.614 1122.54 352.579 1183.73 377.764Z" stroke="white"/>
<path d="M1185.57 374.068C1231.07 393.637 1280.11 425.492 1314.32 378.966C1389.98 276.057 1286.64 212.462 1270.58 248.15C1240.72 314.478 1240.69 274.269 1169.68 288.794C1098.67 303.319 1128.71 349.608 1185.57 374.068Z" stroke="white"/>
<path d="M1187.34 370.629C1229.4 389.514 1274.59 419.89 1307.12 377.074C1379.08 282.372 1283.8 221.65 1268.32 254.641C1239.56 315.957 1240.12 278.521 1173.79 291.003C1107.47 303.486 1134.76 347.022 1187.34 370.629Z" stroke="white"/>
<path d="M1189.01 367.445C1227.68 385.544 1269.08 414.329 1299.83 375.158C1367.84 288.519 1280.51 230.906 1265.69 261.228C1238.16 317.583 1239.23 282.928 1177.64 293.52C1116.04 304.112 1140.67 344.822 1189.01 367.445Z" stroke="white"/>
<path d="M1190.59 364.513C1225.91 381.724 1263.57 408.805 1292.43 373.212C1356.25 294.485 1276.75 240.216 1262.68 267.899C1236.53 319.349 1238.02 287.481 1181.2 296.335C1124.38 305.189 1146.45 342.999 1190.59 364.513Z" stroke="white"/>
<path d="M1192.07 361.829C1224.07 378.051 1258.07 403.32 1284.93 371.234C1344.34 300.264 1272.53 249.571 1259.29 274.646C1234.67 321.25 1236.49 292.173 1184.48 299.442C1132.48 306.711 1152.08 341.552 1192.07 361.829Z" stroke="white"/>
<path d="M1193.45 359.395C1222.17 374.528 1252.57 397.876 1277.33 369.224C1332.1 305.852 1267.85 258.962 1255.51 281.463C1232.57 323.283 1234.63 296.998 1187.47 302.836C1140.32 308.674 1157.55 340.479 1193.45 359.395Z" stroke="white"/>
<path d="M1194.71 357.204C1220.19 371.149 1247.07 392.469 1269.63 367.178C1319.53 311.237 1262.71 268.375 1251.35 288.337C1230.23 325.437 1232.44 301.945 1190.17 306.507C1147.89 311.07 1162.86 339.772 1194.71 357.204Z" stroke="white"/>
<path d="M1195.86 355.253C1218.15 367.913 1241.56 387.1 1261.83 365.092C1306.65 316.412 1257.11 277.799 1246.8 295.259C1227.65 327.709 1229.93 307.007 1192.56 310.449C1155.18 313.891 1168 339.429 1195.86 355.253Z" stroke="white"/>
<path d="M1196.88 353.541C1216.03 364.818 1236.06 381.77 1253.93 362.965C1293.45 321.371 1251.04 287.224 1241.87 302.221C1224.82 330.093 1227.08 312.177 1194.64 314.654C1162.19 317.13 1172.95 339.444 1196.88 353.541Z" stroke="white"/>
<path d="M1197.78 352.066C1213.83 361.866 1230.56 376.48 1245.94 360.797C1279.95 326.108 1244.51 296.64 1236.55 309.215C1221.74 332.585 1223.9 317.448 1196.4 319.116C1168.91 320.785 1177.71 339.816 1197.78 352.066Z" stroke="white"/>
</svg>
