<svg width="111" height="24" viewBox="0 0 111 24" fill="none" xmlns="http://www.w3.org/2000/svg">
<path d="M28.212 24H23.7399L20.1114 17.4102L17.8833 20.0367L17.8832 24H14L14 0H17.8833V14.076L23.1511 7.8637H28.228L22.7691 14.2962L28.212 24Z" fill="#1D1D1F"/>
<path d="M30.1885 7.8637H34.0717L34.0717 24H30.1884L30.1885 7.8637ZM32.1619 5.83486C31.589 5.83486 31.1062 5.65138 30.7137 5.2844C30.3211 4.90695 30.1248 4.43513 30.1248 3.86894C30.1248 3.31324 30.3211 2.84666 30.7137 2.4692C31.1062 2.09174 31.5837 1.90302 32.146 1.90302C32.7083 1.90302 33.1805 2.09174 33.5624 2.4692C33.955 2.84666 34.1513 3.31324 34.1513 3.86894C34.1513 4.43513 33.9603 4.90695 33.5783 5.2844C33.1964 5.65138 32.7242 5.83486 32.1619 5.83486Z" fill="#1D1D1F"/>
<path d="M46.0795 11.7012H42.992L42.992 24H39.1087L39.1088 11.7012H36.7534V7.8637H39.1088V2.9253H42.992V7.8637H46.0795V11.7012Z" fill="#1D1D1F"/>
<path d="M57.1391 11.7012H54.0516L54.0516 24H50.1683L50.1684 11.7012H47.813V7.8637H50.1684V2.9253H54.0516V7.8637H57.1391V11.7012Z" fill="#1D1D1F"/>
<path d="M59.6842 24L59.6683 7.8637H63.5515L63.5675 9.26343C64.1086 8.69725 64.7558 8.25164 65.5091 7.92661C66.2624 7.59109 67.074 7.42333 67.944 7.42333C68.5276 7.42333 69.1111 7.50721 69.6947 7.67497L68.1669 11.5439C67.7637 11.3866 67.3605 11.308 66.9573 11.308C66.3313 11.308 65.7584 11.46 65.2385 11.7641C64.7292 12.0577 64.3208 12.4613 64.0131 12.9751C63.716 13.4784 63.5675 14.0393 63.5675 14.6579V24H59.6842Z" fill="#1D1D1F"/>
<path d="M77.3885 24C75.9244 24 74.5875 23.6278 73.378 22.8834C72.1791 22.1389 71.2189 21.1429 70.4974 19.8952C69.7865 18.637 69.4311 17.2477 69.4311 15.7274C69.4311 14.574 69.638 13.4993 70.0518 12.5033C70.4656 11.4967 71.0332 10.616 71.7547 9.86108C72.4868 9.09568 73.3355 8.49803 74.3011 8.06815C75.2666 7.63827 76.2957 7.42333 77.3885 7.42333C78.8527 7.42333 80.1843 7.79554 81.3832 8.53997C82.5927 9.2844 83.5529 10.2857 84.2638 11.5439C84.9853 12.8021 85.346 14.1966 85.346 15.7274C85.346 16.8702 85.1391 17.9397 84.7253 18.9358C84.3115 19.9318 83.7386 20.8126 83.0065 21.578C82.285 22.3329 81.4415 22.9253 80.476 23.3552C79.5211 23.7851 78.492 24 77.3885 24ZM77.3885 20.1625C78.1631 20.1625 78.858 19.9581 79.4734 19.5491C80.0888 19.1402 80.5715 18.6003 80.9216 17.9292C81.2824 17.2582 81.4628 16.5242 81.4628 15.7274C81.4628 14.9096 81.2771 14.1651 80.9057 13.4941C80.545 12.8126 80.0516 12.2726 79.4256 11.8742C78.8103 11.4653 78.1312 11.2608 77.3885 11.2608C76.6246 11.2608 75.935 11.4653 75.3196 11.8742C74.7042 12.2831 74.2162 12.8283 73.8554 13.5098C73.4947 14.1913 73.3143 14.9305 73.3143 15.7274C73.3143 16.5557 73.5 17.3054 73.8714 17.9764C74.2427 18.6474 74.7361 19.1822 75.3514 19.5806C75.9774 19.9685 76.6565 20.1625 77.3885 20.1625Z" fill="#1D1D1F"/>
<path d="M94.9419 24H91.0905L85.7749 7.8637H89.5786L93.0321 18.0393L96.4697 7.8637H100.305L103.743 18.0393L107.196 7.8637H111L105.684 24H101.833L98.3795 13.3683L94.9419 24Z" fill="#1D1D1F"/>
<path d="M18 24H12.9943V3.8147e-06H18L22 5H18V24Z" fill="#159DFF"/>
<path d="M4 0H8.99998V24H4L0 19H4V0Z" fill="#159DFF"/>
</svg>
