<svg width="1262" height="360" viewBox="0 0 1262 360" fill="none" xmlns="http://www.w3.org/2000/svg">
<path d="M-23.6807 -23.6794L-4.66197 -13.9902L10.4297 -29.0811L7.08984 -8.0013L26.1078 1.68869L5.02723 5.02772L1.68821 26.1091L-8.00179 7.09113L-29.0815 10.4309L-13.9899 -4.66069L-23.6807 -23.6794Z" fill="#FFDA44"/>
<path d="M-23.6801 151.684L-13.9901 132.665L-29.0809 117.574L-8.00038 120.914L1.68802 101.896L5.02784 122.977L26.1076 126.316L7.09204 136.006L10.4303 157.086L-4.66136 141.994L-23.6801 151.684Z" fill="#FFDA44"/>
<path d="M63.999 188L57.4022 167.701H36.0598L53.3279 155.156L46.731 134.858L63.999 147.403L81.2663 134.858L74.6702 155.156L91.9374 167.701H70.5943L63.999 188Z" fill="#FFDA44"/>
<path d="M151.683 151.684L132.665 141.995L117.573 157.086L120.913 136.005L101.896 126.316L122.976 122.977L126.315 101.896L136.004 120.914L157.084 117.574L141.992 132.667L151.683 151.684Z" fill="#FFDA44"/>
<path d="M188 63.9985L167.701 70.5946V91.9378L155.155 74.6697L134.858 81.2658L147.403 63.9985L134.858 46.7313L155.156 53.3274L167.701 36.0593V57.4033L188 63.9985Z" fill="#FFDA44"/>
<path d="M151.683 -23.6802L141.993 -4.66148L157.084 10.4301L136.003 7.08954L126.315 26.1075L122.976 5.02693L101.896 1.68711L120.912 -8.00209L117.572 -29.0811L132.666 -13.9902L151.683 -23.6802Z" fill="#FFDA44"/>
<path d="M1198 172L1204.59 192.299H1225.94L1208.67 204.844L1215.27 225.143L1198 212.597L1180.73 225.143L1187.33 204.844L1170.06 192.299H1191.4L1198 172Z" fill="#FFDA44"/>
<path d="M1110.32 208.321L1129.34 218.01L1144.43 202.919L1141.09 223.999L1160.11 233.689L1139.03 237.028L1135.69 258.109L1126 239.091L1104.92 242.431L1120.01 227.339L1110.32 208.321Z" fill="#FFDA44"/>
<path d="M1074 295.998L1094.3 289.402V268.059L1106.84 285.327L1127.14 278.731L1114.6 295.998L1127.14 313.265L1106.84 306.67L1094.3 323.937V302.594L1074 295.998Z" fill="#FFDA44"/>
<path d="M1110.32 383.684L1120.01 364.665L1104.92 349.574L1126 352.914L1135.69 333.896L1139.03 354.977L1160.11 358.316L1141.09 368.006L1144.43 389.086L1129.34 373.994L1110.32 383.684Z" fill="#FFDA44"/>
<path d="M1285.68 383.684L1266.67 373.995L1251.57 389.086L1254.91 368.005L1235.9 358.316L1256.98 354.977L1260.31 333.896L1270 352.914L1291.08 349.574L1275.99 364.667L1285.68 383.684Z" fill="#FFDA44"/>
<path d="M1285.68 208.32L1275.99 227.339L1291.08 242.43L1270 239.09L1260.31 258.107L1256.98 237.027L1235.9 233.687L1254.91 223.998L1251.57 202.919L1266.67 218.01L1285.68 208.32Z" fill="#FFDA44"/>
</svg>
